<svg width="54" height="52" viewBox="0 0 54 52" fill="none" xmlns="http://www.w3.org/2000/svg">
<rect y="2" width="53.1737" height="49.7368" rx="24.8684" fill="#FF007F"/>
<path d="M36.2905 26.9179C36.2905 32.3247 32.5971 36.1322 27.1523 36.1322C21.8979 36.1322 17.7095 31.9439 17.7095 26.6895C17.7095 21.4731 21.8979 17.2467 27.1523 17.2467C29.6653 17.2467 31.8356 18.1986 33.4729 19.7216L30.8837 22.1965C27.5331 18.9601 21.2887 21.397 21.2887 26.6895C21.2887 30.0021 23.9159 32.6674 27.1523 32.6674C30.8837 32.6674 32.2925 30.0021 32.4829 28.5933H27.1523V25.3568H36.1382C36.2143 25.8518 36.2905 26.3087 36.2905 26.9179Z" fill="white"/>
</svg>
