<svg width="159" height="34" viewBox="0 0 159 34" fill="none" xmlns="http://www.w3.org/2000/svg">
<path d="M27.2207 11.783C27.2641 11.8239 27.3099 11.8669 27.3509 11.91C27.3108 11.865 27.2673 11.8226 27.2207 11.783Z" fill="#1D1D1B"/>
<path d="M21.6857 9.57365C21.7495 9.56887 21.8135 9.56887 21.8773 9.57365C21.8127 9.58563 21.7575 9.57365 21.6857 9.57365Z" fill="#1D1D1B"/>
<path d="M23.1357 9.74219C23.2699 9.76572 23.3993 9.79567 23.5311 9.82776C23.3993 9.78711 23.2699 9.76572 23.1357 9.74219Z" fill="#1D1D1B"/>
<path d="M22.5127 9.64185C22.6469 9.65896 22.781 9.67821 22.9128 9.70174C22.781 9.67821 22.6469 9.65468 22.5127 9.64185Z" fill="#1D1D1B"/>
<path d="M23.7509 9.8833C23.8827 9.91753 24.0097 9.95603 24.1367 9.99454C24.0097 9.95176 23.8827 9.91539 23.7509 9.8833Z" fill="#1D1D1B"/>
<path d="M26.7439 11.3682C26.7897 11.4048 26.8379 11.4435 26.8837 11.4844L26.7439 11.3682Z" fill="#1D1D1B"/>
<path d="M29.2285 15.176C29.2453 15.2423 29.2621 15.3151 29.2788 15.3793C29.2621 15.3065 29.2453 15.2423 29.2285 15.176Z" fill="#1D1D1B"/>
<path d="M29.2929 15.4434L29.3288 15.6017C29.3217 15.5482 29.3097 15.4947 29.2929 15.4434Z" fill="#1D1D1B"/>
<path d="M29.0988 14.7544C29.1179 14.8036 29.1323 14.8549 29.1467 14.9041C29.1339 14.8535 29.1179 14.8035 29.0988 14.7544Z" fill="#1D1D1B"/>
<path d="M29.168 14.9597C29.1871 15.0282 29.2087 15.0988 29.2255 15.1736L29.168 14.9597Z" fill="#1D1D1B"/>
<path d="M29.3839 15.8906C29.3959 15.9634 29.4079 16.0297 29.4175 16.1045C29.4079 16.034 29.3959 15.9634 29.3839 15.8906Z" fill="#1D1D1B"/>
<path d="M29.4989 16.9514C29.4953 17.0106 29.4953 17.0698 29.4989 17.129C29.5061 17.0605 29.5037 17.0092 29.4989 16.9514Z" fill="#1D1D1B"/>
<path d="M29.5107 17.1997V17.4457C29.5131 17.3623 29.5131 17.2746 29.5107 17.1997Z" fill="#1D1D1B"/>
<path d="M27.2141 11.7773C27.1683 11.7321 27.1201 11.689 27.0695 11.646C27.1201 11.689 27.1538 11.7321 27.2141 11.7773Z" fill="#1D1D1B"/>
<path d="M29.4561 16.4189C29.4561 16.4981 29.4729 16.5751 29.4801 16.6521C29.4777 16.5644 29.4657 16.4874 29.4561 16.4189Z" fill="#1D1D1B"/>
<path d="M29.4766 16.6479C29.4766 16.7228 29.4885 16.802 29.4933 16.879C29.4909 16.802 29.4861 16.7228 29.4766 16.6479Z" fill="#1D1D1B"/>
<path d="M28.3201 13.1094C28.356 13.165 28.3919 13.2206 28.4255 13.2762C28.3967 13.2206 28.3512 13.165 28.3201 13.1094Z" fill="#1D1D1B"/>
<path d="M27.9443 12.5681C27.9851 12.6216 28.0234 12.6708 28.0617 12.7264C28.0234 12.6879 27.9851 12.6302 27.9443 12.5681Z" fill="#1D1D1B"/>
<path d="M28.8594 14.1045C28.8787 14.1519 28.9004 14.1992 28.9172 14.2444C28.8922 14.1998 28.8728 14.1529 28.8594 14.1045Z" fill="#1D1D1B"/>
<path d="M28.7471 13.8755C28.7758 13.9332 28.8022 13.991 28.8285 14.0488C28.8022 13.991 28.7758 13.929 28.7471 13.8755Z" fill="#1D1D1B"/>
<path d="M27.5247 12.0891C27.5705 12.1386 27.6163 12.186 27.6597 12.2269C27.6163 12.186 27.5705 12.1408 27.5247 12.0891Z" fill="#1D1D1B"/>
<path d="M29.2643 19.2431C29.2595 19.2298 29.2595 19.2154 29.2643 19.2021C29.2716 19.2151 29.2667 19.228 29.2643 19.2431Z" fill="#1D1D1B"/>
<path d="M27.4473 22.8881L27.5003 22.8127C27.4834 22.8364 27.469 22.858 27.4473 22.8881Z" fill="#1D1D1B"/>
<path d="M27.2031 23.22C27.2224 23.192 27.2417 23.1662 27.2634 23.1404C27.2414 23.1657 27.2212 23.1923 27.2031 23.22Z" fill="#1D1D1B"/>
<path d="M29.5029 17.7883V17.7388C29.5041 17.7553 29.5041 17.7718 29.5029 17.7883Z" fill="#1D1D1B"/>
<path d="M29.4582 18.2739V18.2266C29.4618 18.2422 29.4618 18.2583 29.4582 18.2739Z" fill="#1D1D1B"/>
<path d="M29.4395 18.4234V18.3782C29.4407 18.3932 29.4407 18.4083 29.4395 18.4234Z" fill="#1D1D1B"/>
<path d="M20.6289 9.60575C20.7655 9.60575 20.8996 9.5865 21.0362 9.58008C20.8996 9.5865 20.7631 9.59505 20.6289 9.60575Z" fill="#1D1D1B"/>
<path d="M20.0088 9.67854C20.143 9.65715 20.2771 9.64217 20.4137 9.6272C20.2771 9.64217 20.143 9.65501 20.0088 9.67854Z" fill="#1D1D1B"/>
<path d="M29.3457 18.9137C29.3444 18.8965 29.3444 18.8793 29.3457 18.8621C29.353 18.8793 29.3481 18.89 29.3457 18.9137Z" fill="#1D1D1B"/>
<path d="M29.0126 20.0367C29.0162 20.0178 29.0235 19.9996 29.0343 19.9829C29.026 19.9896 29.0196 19.998 29.0158 20.0074C29.012 20.0168 29.0109 20.0269 29.0126 20.0367Z" fill="#1D1D1B"/>
<path d="M28.6651 20.839C28.6689 20.8197 28.6771 20.8014 28.6892 20.7852C28.6801 20.8027 28.6721 20.8207 28.6651 20.839Z" fill="#1D1D1B"/>
<path d="M29.2187 19.4015C29.2224 19.3833 29.2272 19.3653 29.2332 19.3477C29.2306 19.366 29.2258 19.3841 29.2187 19.4015Z" fill="#1D1D1B"/>
<path d="M29.168 19.549C29.1705 19.5313 29.1753 19.514 29.1824 19.4973C29.1846 19.5155 29.1795 19.5338 29.168 19.549Z" fill="#1D1D1B"/>
<path d="M4.16895 10.4823C4.40854 10.3603 4.6673 10.2512 4.92127 10.1528C4.66384 10.2501 4.41267 10.3601 4.16895 10.4823Z" fill="#1D1D1B"/>
<path d="M11.721 31.573C11.7202 30.7155 11.669 29.8586 11.5676 29.0059C11.4674 28.8195 11.4142 28.6158 11.4119 28.4091V27.8871C11.2969 27.1583 11.1467 26.421 10.9615 25.6751C10.9111 25.4612 10.8584 25.2622 10.8081 25.0611H7.66703C7.25965 25.0606 6.86899 24.9164 6.58004 24.66C6.29108 24.4036 6.1272 24.0558 6.12404 23.692V20.4832C6.12404 20.1176 6.28653 19.767 6.57582 19.5083C6.86512 19.2496 7.25758 19.1039 7.66703 19.1034H8.33789C6.52416 15.9758 4.16895 13.6119 1.67716 12.4375C0.642114 13.6954 0 15.364 0 17.4476C0 23.0096 7.6239 28.8497 11.9126 31.6949L11.721 31.573Z" fill="#FF007F"/>
<path d="M8.16045 9.57342C7.93257 9.56981 7.70463 9.57695 7.4776 9.59481C7.70761 9.57342 7.93283 9.57342 8.16045 9.57342Z" fill="#1D1D1B"/>
<path d="M6.38281 9.73812C6.60803 9.69534 6.83325 9.66111 7.06087 9.6333C6.83295 9.65765 6.60663 9.69264 6.38281 9.73812Z" fill="#1D1D1B"/>
<path d="M9.53295 13.1522C9.60765 13.0544 9.64234 12.9365 9.63118 12.8185C9.62004 12.7001 9.5643 12.5885 9.47305 12.5019C9.42647 12.4604 9.37414 12.4245 9.31731 12.3949C9.26798 12.3672 9.21231 12.3496 9.15439 12.3436C9.09714 12.3379 9.03917 12.343 8.98428 12.3586C8.92945 12.376 8.87898 12.4029 8.83573 12.4377C8.79415 12.4741 8.76151 12.5178 8.73989 12.5661C8.71191 12.6352 8.69969 12.7087 8.70395 12.7821C8.7093 12.8571 8.73302 12.9302 8.77344 12.9961C8.81246 13.0622 8.86628 13.1204 8.93157 13.1672C8.99832 13.2134 9.07497 13.2469 9.15679 13.2656C9.22595 13.2803 9.29841 13.2766 9.36523 13.2549C9.43069 13.2352 9.48875 13.1996 9.53295 13.1522Z" fill="#6B93F6"/>
<path d="M25.5028 25.2304C25.3652 23.4214 25.0745 21.6243 24.6331 19.8545C23.622 15.79 21.9472 12.2388 20.0089 9.66962C18.883 9.8269 17.8168 10.2263 16.9023 10.8334C15.9878 11.4405 15.2523 12.2371 14.7594 13.1544C14.3021 12.3 13.633 11.5497 12.8027 10.9604C11.9725 10.3711 11.0029 9.9582 9.96749 9.75305L9.88603 9.74021H9.85728C9.79738 9.72738 9.73509 9.71454 9.66321 9.70598C8.85811 9.56756 8.03429 9.53799 7.21934 9.61827C7.90497 10.2452 8.47147 10.9677 8.89651 11.7575C8.90649 11.7855 8.92786 11.8092 8.95641 11.8238C8.98498 11.8376 9.01797 11.8421 9.04985 11.8367C9.19379 11.8339 9.33649 11.861 9.46674 11.9158C9.5972 11.9704 9.71194 12.0509 9.80217 12.1511C9.94996 12.2872 10.0582 12.4534 10.1175 12.6354C10.1768 12.8173 10.1854 13.0095 10.1424 13.1951C10.1231 13.3046 10.0755 13.4086 10.0034 13.4989C9.93181 13.5886 9.83738 13.6619 9.7279 13.7128C9.61958 13.7654 9.49897 13.7947 9.3757 13.7983C9.25206 13.8009 9.12934 13.779 9.0163 13.7342C8.7178 13.6273 8.47674 13.422 8.34304 13.1609C8.21126 12.8986 8.19923 12.6009 8.3095 12.3308C8.35711 12.2072 8.43963 12.0967 8.54909 12.0099L8.57066 11.9907C8.57242 11.9822 8.57242 11.9735 8.57066 11.965C8.57309 11.9566 8.57309 11.9478 8.57066 11.9393C8.5716 11.9308 8.5716 11.9222 8.57066 11.9137C8.10778 11.084 7.49408 10.3286 6.75453 9.67817C6.06124 9.78344 5.38628 9.96897 4.74673 10.2301C4.83538 10.3092 4.92642 10.3884 5.01268 10.4718C5.40148 10.8455 5.74593 11.2542 6.04054 11.6912C6.0498 11.7144 6.06867 11.7335 6.09325 11.7447C6.11874 11.7532 6.14683 11.7532 6.17232 11.7447C6.29231 11.7261 6.41555 11.7334 6.53171 11.7661C6.6471 11.7996 6.75212 11.8567 6.83839 11.9329C6.98576 12.0461 7.09799 12.1912 7.16424 12.3544C7.23411 12.5126 7.25961 12.6837 7.23851 12.8528C7.23403 12.9663 7.1969 13.0768 7.13069 13.1737C7.06539 13.2705 6.9718 13.3496 6.85995 13.4026C6.75068 13.4589 6.62673 13.4886 6.50056 13.4886C6.37439 13.4886 6.25044 13.4589 6.14117 13.4026C5.91362 13.2998 5.73377 13.1288 5.63304 12.9196C5.53231 12.7104 5.51712 12.4763 5.5901 12.2581C5.63102 12.1561 5.68745 12.0597 5.75782 11.9714C5.77439 11.955 5.78375 11.9337 5.78417 11.9115C5.7842 11.8893 5.77478 11.8679 5.75782 11.8516C5.4435 11.4 5.07385 10.981 4.65568 10.6023L4.39213 10.3777C3.38595 10.8346 2.50303 11.4813 1.8045 12.2731C5.87761 14.1278 9.62967 19.1657 11.223 25.5706C11.7316 27.594 11.984 29.6621 11.9753 31.7359C12.9121 32.3562 13.6836 32.829 14.1748 33.1157C14.3442 33.2189 14.5446 33.2741 14.7498 33.274C14.9549 33.2735 15.1551 33.2183 15.3248 33.1157C16.0436 32.6878 17.3973 31.8514 18.981 30.7368C21.3582 29.1033 23.5433 27.2583 25.5028 25.2304ZM23.38 23.6752C23.38 24.0406 23.2174 24.391 22.9281 24.6494C22.6387 24.9077 22.2462 25.0529 21.837 25.0529H18.085V28.3986C18.085 28.6586 18.0019 28.9132 17.8454 29.1324C15.598 25.7824 13.5327 21.6237 11.9274 16.9858C11.7549 16.4895 11.5951 15.9953 11.4482 15.5033C11.5127 15.1855 11.7001 14.8979 11.9776 14.6907C12.2552 14.4835 12.6054 14.3699 12.9672 14.3695H16.5611C16.9702 14.3701 17.3623 14.5154 17.6515 14.7737C17.9407 15.0319 18.1035 15.382 18.1041 15.7472V19.0994H21.8562C22.0582 19.1008 22.2579 19.1377 22.4439 19.208C22.6299 19.2783 22.7986 19.3807 22.9404 19.5092C23.0821 19.6377 23.1941 19.7899 23.2699 19.9571C23.3458 20.1242 23.384 20.3031 23.3824 20.4835L23.38 23.6752Z" fill="#6B93F6"/>
<path d="M6.60369 12.9704C6.66704 12.9375 6.71825 12.8888 6.75102 12.8303C6.78379 12.7718 6.79671 12.706 6.78817 12.641C6.78765 12.5664 6.76711 12.4931 6.72827 12.4271C6.69126 12.3622 6.63796 12.3058 6.57254 12.2623C6.52429 12.2235 6.46429 12.1982 6.40003 12.1896C6.33621 12.1788 6.27021 12.1855 6.21075 12.2089C6.14497 12.2313 6.08822 12.2708 6.04783 12.3222C6.00867 12.3743 5.98629 12.435 5.98314 12.4977C5.97117 12.5874 5.98883 12.6784 6.03395 12.7593C6.07906 12.8403 6.14967 12.9077 6.2371 12.9533C6.29191 12.9863 6.35563 13.0055 6.42159 13.0089C6.48514 13.0117 6.54826 12.9983 6.60369 12.9704Z" fill="#6B93F6"/>
<path d="M27.5613 14.0851C27.5164 14.0987 27.4766 14.1231 27.4463 14.1557C27.4163 14.192 27.3981 14.2349 27.3936 14.2798C27.3879 14.331 27.3944 14.3828 27.4127 14.4317C27.432 14.4796 27.4613 14.5239 27.499 14.5622C27.5385 14.5991 27.5857 14.6289 27.638 14.6499C27.6903 14.6696 27.7465 14.6798 27.8033 14.6798C27.8423 14.6776 27.8805 14.6689 27.9159 14.6541C27.9505 14.6381 27.9807 14.6154 28.0045 14.5878C28.0298 14.5606 28.047 14.5283 28.0549 14.4937C28.0632 14.4592 28.0632 14.4234 28.0549 14.3889C28.0455 14.3511 28.0311 14.3144 28.0117 14.2798C27.9711 14.208 27.9043 14.1507 27.8225 14.1172C27.7418 14.0809 27.6499 14.0697 27.5613 14.0851Z" fill="#FF007F"/>
<path d="M27.6495 16.1342C27.6058 16.1125 27.5555 16.1035 27.5058 16.1086C27.4567 16.1131 27.4101 16.1302 27.3716 16.1578C27.3369 16.1836 27.3112 16.2178 27.2973 16.2562C27.285 16.2946 27.285 16.3354 27.2973 16.3738C27.3078 16.4357 27.3387 16.4934 27.386 16.5395C27.4334 16.5856 27.4951 16.618 27.5633 16.6327C27.6086 16.6449 27.6569 16.6449 27.7022 16.6327C27.7487 16.6218 27.7905 16.5987 27.822 16.5664C27.8511 16.5376 27.8702 16.5019 27.8771 16.4637C27.8864 16.425 27.8822 16.3847 27.8652 16.3481C27.85 16.3001 27.8227 16.2558 27.7853 16.2187C27.7479 16.1816 27.7014 16.1527 27.6495 16.1342Z" fill="#FF007F"/>
<path d="M28.1597 16.7803C28.4046 17.0457 28.6189 17.3323 28.7994 17.636C29.0555 18.0806 29.2279 18.5598 29.3098 19.0543C29.4413 18.5261 29.5088 17.9868 29.511 17.4456C29.511 17.1568 29.4966 16.8766 29.4751 16.6028L29.4415 16.5386C29.1415 15.9433 28.7281 15.399 28.2196 14.9299L28.2076 14.9213H28.1885H28.1669C28.1669 14.9213 28.1669 14.9213 28.1477 14.9213C28.0601 14.9637 27.9623 14.9865 27.8626 14.9876C27.6451 14.9883 27.4358 14.9135 27.2789 14.779C27.1219 14.6445 27.0297 14.4608 27.0216 14.2667C27.0097 14.1542 27.0426 14.0415 27.1144 13.9484C27.1863 13.8553 27.2925 13.7877 27.4146 13.7576C27.4933 13.7404 27.5755 13.7404 27.6542 13.7576C27.7982 13.7728 27.9357 13.8199 28.0543 13.8945C28.1775 13.9639 28.2795 14.0595 28.3514 14.1726C28.4036 14.247 28.4356 14.3312 28.4448 14.4186C28.4537 14.505 28.4406 14.592 28.4065 14.6732C28.3955 14.69 28.3913 14.7096 28.3945 14.7288C28.3995 14.7474 28.4113 14.764 28.4281 14.7759C28.8091 15.1206 29.137 15.5091 29.4032 15.931C28.6173 11.3253 24.3238 9.22453 20.4639 9.62029C22.3807 12.1874 24.0147 15.7043 25.0162 19.7175C25.4383 21.404 25.7226 23.1156 25.8668 24.8388C27.0113 23.6115 27.9603 22.2487 28.6868 20.7893C28.4928 20.157 28.1551 19.5672 27.6949 19.0565C27.6864 19.0433 27.6727 19.0334 27.6566 19.0287C27.6403 19.0232 27.6225 19.0232 27.6062 19.0287C27.5287 19.0502 27.4478 19.0603 27.3666 19.0586C27.1946 19.0509 27.031 18.9895 26.9045 18.8851C26.7779 18.7807 26.6964 18.64 26.6742 18.4874C26.6562 18.412 26.6614 18.3335 26.6892 18.2605C26.7171 18.1874 26.7665 18.1224 26.8324 18.0724C26.9001 18.0195 26.9831 17.9846 27.0719 17.9719C27.1518 17.9587 27.234 17.9631 27.3115 17.9847C27.4367 18.0098 27.5531 18.0619 27.6504 18.1365C27.7478 18.2111 27.8231 18.3059 27.8698 18.4126C27.9037 18.4797 27.9201 18.5529 27.9177 18.6265C27.9158 18.7014 27.8936 18.7748 27.853 18.8404C27.8399 18.8524 27.8325 18.8685 27.8325 18.8853C27.8325 18.9021 27.8399 18.9183 27.853 18.9303C28.0976 19.1958 28.3119 19.4824 28.4927 19.786C28.6265 20.0046 28.7395 20.2329 28.8306 20.4684C28.9552 20.1817 29.0702 19.8908 29.1588 19.5998C29.1354 19.3211 29.0841 19.0447 29.0055 18.7741C28.8182 18.0924 28.4657 17.4556 27.9728 16.9087C27.9643 16.8955 27.9506 16.8856 27.9345 16.8809C27.9181 16.8765 27.9006 16.8765 27.8842 16.8809C27.8065 16.9021 27.7258 16.9129 27.6446 16.913C27.4743 16.9027 27.3133 16.8399 27.1891 16.7353C27.065 16.6307 26.9854 16.4908 26.9641 16.3396C26.9461 16.2642 26.9513 16.1857 26.9791 16.1127C27.007 16.0396 27.0564 15.9746 27.1223 15.9246C27.1868 15.8743 27.2648 15.8396 27.3487 15.8238C27.4326 15.8081 27.5196 15.8119 27.6015 15.8348C27.729 15.8609 27.8475 15.9145 27.9465 15.9909C28.0447 16.0667 28.1204 16.163 28.1669 16.2712C28.2008 16.3383 28.2172 16.4115 28.2148 16.4851C28.2134 16.5601 28.1912 16.6336 28.1501 16.699C28.1402 16.7122 28.136 16.7282 28.1381 16.744C28.1401 16.758 28.1478 16.771 28.1597 16.7803Z" fill="#FF007F"/>
<path d="M27.364 18.2846C27.3194 18.2651 27.2697 18.257 27.2203 18.261C27.1712 18.2656 27.1246 18.2826 27.0861 18.3102C27.0514 18.3361 27.0257 18.3702 27.0118 18.4086C26.9987 18.447 26.9987 18.488 27.0118 18.5263C27.0247 18.5868 27.0572 18.6426 27.1052 18.6867C27.1523 18.7311 27.2132 18.7617 27.2802 18.7744C27.3255 18.7867 27.3738 18.7867 27.4191 18.7744C27.4649 18.7634 27.5064 18.7412 27.5389 18.7103C27.5674 18.68 27.5871 18.6441 27.5964 18.6054C27.6037 18.5665 27.5987 18.5265 27.582 18.4899C27.5668 18.4425 27.5389 18.3992 27.5006 18.3637C27.4617 18.3291 27.4152 18.3021 27.364 18.2846Z" fill="#FF007F"/>
<path d="M36.8055 29.2251V11.7705H38.6639L44.2149 23.3638V11.7705H46.4594V29.2251H44.7458L39.1224 17.3086V29.2251H36.8055Z" fill="#FF007F"/>
<path d="M49.6992 29.2251V11.7705H52.3781V29.2251H49.6992Z" fill="#FF007F"/>
<path d="M60.1496 29.4191C59.1584 29.4499 58.1782 29.2255 57.3259 28.7726C56.5831 28.3326 55.9968 27.712 55.6364 26.9841C55.2312 26.1452 55.0041 25.2465 54.9667 24.3336L57.3802 23.7517C57.4264 24.3546 57.5293 24.9529 57.6879 25.5403C57.8427 26.0662 58.1319 26.553 58.5326 26.9625C58.7462 27.1467 59 27.2897 59.2782 27.3824C59.5565 27.475 59.8531 27.5155 60.1496 27.5013C60.4429 27.5189 60.737 27.4799 61.0119 27.387C61.2867 27.294 61.536 27.1492 61.7425 26.9625C62.1418 26.5356 62.3407 25.9874 62.2976 25.4326C62.3372 24.7582 62.125 24.0913 61.6943 23.5363C61.2495 23.0009 60.7418 22.5096 60.1798 22.0709L56.8914 19.4851C56.2987 19.0383 55.8142 18.4884 55.4675 17.8689C55.1448 17.1653 54.9906 16.4093 55.0149 15.6493C54.975 15.1061 55.0615 14.5614 55.2692 14.0495C55.4769 13.5377 55.8013 13.0699 56.2217 12.6756C56.6746 12.307 57.2047 12.022 57.7815 11.8371C58.3583 11.6521 58.9704 11.5709 59.5825 11.5981C60.2713 11.5853 60.9574 11.6801 61.6098 11.8783C62.1705 12.0317 62.6762 12.3141 63.076 12.6971C63.5032 13.1044 63.8264 13.5897 64.0233 14.1194C64.2832 14.7576 64.4436 15.4247 64.4999 16.1019L62.189 16.6406C62.1471 16.109 62.0481 15.5822 61.8934 15.0675C61.7801 14.6165 61.5097 14.2092 61.121 13.9039C60.6943 13.579 60.1419 13.4165 59.5825 13.4514C59.2934 13.4353 59.0036 13.4708 58.7301 13.5559C58.4566 13.641 58.2048 13.774 57.9896 13.947C57.7899 14.1359 57.6368 14.36 57.5402 14.605C57.4435 14.85 57.4055 15.1103 57.4284 15.3692C57.4136 15.8212 57.5126 16.2704 57.718 16.6837C57.9782 17.0896 58.3127 17.4538 58.7076 17.7611L62.0201 20.347C62.7829 20.9463 63.4417 21.6435 63.975 22.4157C64.5559 23.2641 64.8493 24.2446 64.8197 25.2386C64.8394 26.0197 64.6315 26.792 64.2163 27.4797C63.8221 28.0861 63.2423 28.5795 62.545 28.9019C61.8065 29.2481 60.9836 29.4257 60.1496 29.4191Z" fill="#FF007F"/>
<path d="M66.9736 29.2251V11.7705H69.7008V19.3126H74.6967V11.7705H77.4239V29.2251H74.6967V21.0581H69.6767V29.2251H66.9736Z" fill="#FF007F"/>
<path d="M79.416 29.2251L83.5671 11.7705H86.1978L90.3732 29.2251H87.7907L86.8857 24.8292H82.9034L81.9622 29.2251H79.416ZM83.2775 23.0837H86.5357L84.8946 15.2183L83.2775 23.0837Z" fill="#FF007F"/>
<path d="M94.2519 29.2251V11.7705H96.9791V19.3126H101.999V11.7705H104.726V29.2251H101.999V21.0581H96.9791V29.2251H94.2519Z" fill="#6B93F6"/>
<path d="M107.78 29.2251V11.7705H115.358V13.5806H110.532V19.3557H114.465V21.0796H110.532V27.4797H115.431V29.2251H107.78Z" fill="#6B93F6"/>
<path d="M116.547 29.2254L120.698 11.7708H123.329L127.504 29.2254H124.897L124.004 24.8294H120.07L119.129 29.2254H116.547ZM120.408 23.0839H123.691L122.049 15.2186L120.408 23.0839Z" fill="#6B93F6"/>
<path d="M129.489 29.2254V11.7708H132.216V27.4799H137.212V29.2254H129.489Z" fill="#6B93F6"/>
<path d="M140.688 29.2251V13.6021H137.382V11.792H146.619V13.6021H143.409V29.2251H140.688Z" fill="#6B93F6"/>
<path d="M148.508 29.2251V11.7705H151.235V19.3126H156.273V11.7705H159V29.2251H156.273V21.0581H151.253V29.2251H148.508Z" fill="#6B93F6"/>
</svg>
