<svg width="246" height="51" viewBox="0 0 246 51" fill="none" xmlns="http://www.w3.org/2000/svg">
<path d="M42.0234 17.1428C42.0904 17.206 42.1612 17.2724 42.2244 17.3389C42.1625 17.2695 42.0953 17.204 42.0234 17.1428Z" fill="#1D1D1B"/>
<path d="M33.4786 13.7321C33.5771 13.7247 33.676 13.7247 33.7745 13.7321C33.6747 13.7506 33.5896 13.7321 33.4786 13.7321Z" fill="#1D1D1B"/>
<path d="M35.717 13.9919C35.9242 14.0283 36.1239 14.0745 36.3274 14.124C36.1239 14.0613 35.9242 14.0283 35.717 13.9919Z" fill="#1D1D1B"/>
<path d="M34.7551 13.8374C34.9623 13.8638 35.1694 13.8935 35.3728 13.9299C35.1694 13.8935 34.9623 13.8572 34.7551 13.8374Z" fill="#1D1D1B"/>
<path d="M36.6669 14.2107C36.8703 14.2635 37.0663 14.323 37.2624 14.3824C37.0663 14.3164 36.8703 14.2602 36.6669 14.2107Z" fill="#1D1D1B"/>
<path d="M41.2874 16.5029C41.3581 16.5594 41.4325 16.6192 41.5032 16.6824L41.2874 16.5029Z" fill="#1D1D1B"/>
<path d="M45.123 22.3811C45.1489 22.4835 45.1748 22.5958 45.2007 22.6948C45.1748 22.5826 45.1489 22.4835 45.123 22.3811Z" fill="#1D1D1B"/>
<path d="M45.2225 22.7942L45.278 23.0386C45.2669 22.956 45.2484 22.8735 45.2225 22.7942Z" fill="#1D1D1B"/>
<path d="M44.9226 21.7307C44.9522 21.8067 44.9744 21.8859 44.9966 21.9619C44.9768 21.8836 44.9521 21.8065 44.9226 21.7307Z" fill="#1D1D1B"/>
<path d="M45.0297 22.0471C45.0593 22.1528 45.0925 22.2618 45.1184 22.3774L45.0297 22.0471Z" fill="#1D1D1B"/>
<path d="M45.3632 23.4839C45.3817 23.5962 45.4001 23.6986 45.4149 23.8141C45.4001 23.7052 45.3817 23.5962 45.3632 23.4839Z" fill="#1D1D1B"/>
<path d="M45.5402 25.1221C45.5348 25.2134 45.5348 25.3049 45.5402 25.3962C45.5513 25.2905 45.5476 25.2112 45.5402 25.1221Z" fill="#1D1D1B"/>
<path d="M45.5588 25.5056V25.8854C45.5625 25.7566 45.5625 25.6212 45.5588 25.5056Z" fill="#1D1D1B"/>
<path d="M42.013 17.1346C41.9423 17.0648 41.8678 16.9984 41.7897 16.9319C41.8678 16.9984 41.9199 17.0648 42.013 17.1346Z" fill="#1D1D1B"/>
<path d="M45.4744 24.3003C45.4744 24.4225 45.5003 24.5414 45.5114 24.6603C45.5077 24.5249 45.4892 24.406 45.4744 24.3003Z" fill="#1D1D1B"/>
<path d="M45.506 24.6531C45.506 24.7687 45.5245 24.8909 45.5319 25.0098C45.5282 24.8909 45.5208 24.7687 45.506 24.6531Z" fill="#1D1D1B"/>
<path d="M43.7206 19.1909C43.7761 19.2768 43.8315 19.3627 43.8833 19.4485C43.8389 19.3627 43.7687 19.2768 43.7206 19.1909Z" fill="#1D1D1B"/>
<path d="M43.1405 18.355C43.2034 18.4375 43.2626 18.5135 43.3217 18.5994C43.2626 18.5399 43.2034 18.4508 43.1405 18.355Z" fill="#1D1D1B"/>
<path d="M44.5532 20.7266C44.583 20.7997 44.6165 20.8728 44.6426 20.9426C44.6039 20.8738 44.5739 20.8013 44.5532 20.7266Z" fill="#1D1D1B"/>
<path d="M44.3799 20.3738C44.4243 20.4629 44.465 20.5521 44.5056 20.6413C44.465 20.5521 44.4243 20.4563 44.3799 20.3738Z" fill="#1D1D1B"/>
<path d="M42.4927 17.6155C42.5634 17.6919 42.6341 17.765 42.7011 17.8282C42.6341 17.765 42.5634 17.6952 42.4927 17.6155Z" fill="#1D1D1B"/>
<path d="M45.1784 28.6603C45.171 28.6398 45.171 28.6177 45.1784 28.5972C45.1896 28.6171 45.1821 28.637 45.1784 28.6603Z" fill="#1D1D1B"/>
<path d="M42.3732 34.287L42.4551 34.1707C42.429 34.2072 42.4067 34.2404 42.3732 34.287Z" fill="#1D1D1B"/>
<path d="M41.9962 34.7995C42.026 34.7563 42.0558 34.7164 42.0893 34.6765C42.0553 34.7156 42.0242 34.7567 41.9962 34.7995Z" fill="#1D1D1B"/>
<path d="M45.5468 26.4136V26.3372C45.5486 26.3626 45.5486 26.3881 45.5468 26.4136Z" fill="#1D1D1B"/>
<path d="M45.4778 27.1632V27.0901C45.4834 27.1142 45.4834 27.1391 45.4778 27.1632Z" fill="#1D1D1B"/>
<path d="M45.4487 27.3945V27.3247C45.4506 27.3479 45.4506 27.3713 45.4487 27.3945Z" fill="#1D1D1B"/>
<path d="M31.8469 13.7813C32.0578 13.7813 32.2649 13.7516 32.4757 13.7417C32.2649 13.7516 32.0541 13.7648 31.8469 13.7813Z" fill="#1D1D1B"/>
<path d="M30.8896 13.8942C31.0968 13.8612 31.3039 13.8381 31.5148 13.8149C31.3039 13.8381 31.0968 13.8579 30.8896 13.8942Z" fill="#1D1D1B"/>
<path d="M45.3041 28.1513C45.302 28.1247 45.302 28.0981 45.3041 28.0715C45.3152 28.0981 45.3078 28.1147 45.3041 28.1513Z" fill="#1D1D1B"/>
<path d="M44.79 29.8848C44.7955 29.8556 44.8069 29.8275 44.8235 29.8018C44.8106 29.812 44.8008 29.825 44.795 29.8395C44.7891 29.854 44.7874 29.8696 44.79 29.8848Z" fill="#1D1D1B"/>
<path d="M44.2532 31.1231C44.2591 31.0934 44.2717 31.0652 44.2904 31.04C44.2764 31.0671 44.264 31.0949 44.2532 31.1231Z" fill="#1D1D1B"/>
<path d="M45.108 28.9041C45.1137 28.8761 45.1212 28.8483 45.1304 28.821C45.1265 28.8494 45.119 28.8773 45.108 28.9041Z" fill="#1D1D1B"/>
<path d="M45.0297 29.132C45.0336 29.1047 45.0411 29.078 45.052 29.0522C45.0553 29.0804 45.0474 29.1086 45.0297 29.132Z" fill="#1D1D1B"/>
<path d="M6.43604 15.1353C6.80592 14.9471 7.2054 14.7786 7.59748 14.6267C7.20005 14.7768 6.8123 14.9466 6.43604 15.1353Z" fill="#1D1D1B"/>
<path d="M18.0949 47.6952C18.0937 46.3714 18.0146 45.0486 17.8581 43.7322C17.7034 43.4444 17.6213 43.1299 17.6177 42.8107V42.0049C17.4402 40.8798 17.2084 39.7416 16.9223 38.5901C16.8447 38.2598 16.7633 37.9527 16.6856 37.6422H11.8364C11.2075 37.6414 10.6044 37.4188 10.1583 37.023C9.71219 36.6272 9.45919 36.0901 9.45431 35.5286V30.5747C9.45431 30.0104 9.70516 29.4691 10.1518 29.0697C10.5984 28.6703 11.2043 28.4455 11.8364 28.4446H12.8721C10.072 23.6162 6.43603 19.9669 2.58921 18.1538C0.991297 20.0957 0 22.6717 0 25.8884C0 34.4751 11.7698 43.4911 18.3908 47.8835L18.0949 47.6952Z" fill="#FF007F"/>
<path d="M12.598 13.7319C12.2462 13.7263 11.8943 13.7373 11.5438 13.7649C11.8989 13.7319 12.2466 13.7319 12.598 13.7319Z" fill="#1D1D1B"/>
<path d="M9.85376 13.9858C10.2015 13.9197 10.5491 13.8669 10.9005 13.824C10.5487 13.8616 10.1993 13.9156 9.85376 13.9858Z" fill="#1D1D1B"/>
<path d="M14.717 19.2573C14.8323 19.1062 14.8859 18.9243 14.8687 18.7421C14.8514 18.5592 14.7654 18.3869 14.6245 18.2533C14.5526 18.1893 14.4718 18.1338 14.3841 18.0882C14.3079 18.0453 14.222 18.0182 14.1326 18.0089C14.0442 18 13.9547 18.0079 13.87 18.032C13.7853 18.059 13.7074 18.1005 13.6406 18.1542C13.5764 18.2104 13.5261 18.2779 13.4927 18.3524C13.4495 18.4591 13.4306 18.5726 13.4372 18.6859C13.4454 18.8017 13.4821 18.9144 13.5445 19.0162C13.6047 19.1183 13.6878 19.2082 13.7886 19.2804C13.8916 19.3517 14.01 19.4034 14.1363 19.4323C14.2431 19.455 14.3549 19.4492 14.4581 19.4158C14.5591 19.3853 14.6488 19.3305 14.717 19.2573Z" fill="#6B93F6"/>
<path d="M39.3712 37.9035C39.1587 35.1108 38.7099 32.3364 38.0285 29.6042C36.4676 23.3293 33.882 17.8471 30.8897 13.8807C29.1515 14.1235 27.5055 14.7401 26.0937 15.6773C24.6819 16.6146 23.5465 17.8443 22.7854 19.2605C22.0794 17.9415 21.0464 16.7832 19.7647 15.8734C18.483 14.9636 16.9862 14.3262 15.3877 14.0095L15.2619 13.9897H15.2175C15.1251 13.9698 15.0289 13.95 14.9179 13.9368C13.675 13.7231 12.4032 13.6775 11.1451 13.8014C12.2036 14.7692 13.0781 15.8847 13.7343 17.104C13.7497 17.1472 13.7827 17.1837 13.8268 17.2064C13.8709 17.2275 13.9218 17.2345 13.971 17.2262C14.1933 17.222 14.4135 17.2638 14.6146 17.3484C14.816 17.4326 14.9932 17.5569 15.1325 17.7116C15.3606 17.9216 15.5278 18.1783 15.6193 18.4592C15.7109 18.7401 15.724 19.0368 15.6577 19.3233C15.6279 19.4924 15.5545 19.6529 15.4432 19.7923C15.3326 19.9308 15.1868 20.044 15.0178 20.1225C14.8506 20.2038 14.6644 20.2491 14.4741 20.2546C14.2832 20.2585 14.0937 20.2247 13.9192 20.1555C13.4584 19.9905 13.0863 19.6736 12.8799 19.2705C12.6764 18.8656 12.6578 18.4059 12.8281 17.9891C12.9016 17.7983 13.029 17.6276 13.198 17.4937L13.2313 17.464C13.234 17.4509 13.234 17.4374 13.2313 17.4243C13.235 17.4113 13.235 17.3977 13.2313 17.3847C13.2327 17.3715 13.2327 17.3582 13.2313 17.3451C12.5167 16.0643 11.5692 14.8981 10.4275 13.8939C9.3572 14.0564 8.3152 14.3428 7.32786 14.7459C7.46472 14.8681 7.60527 14.9903 7.73843 15.1191C8.33866 15.6961 8.87043 16.3269 9.32525 17.0016C9.33955 17.0374 9.36867 17.0669 9.40662 17.0842C9.44597 17.0973 9.48933 17.0973 9.52868 17.0842C9.71393 17.0554 9.90419 17.0667 10.0835 17.1172C10.2617 17.1689 10.4238 17.2572 10.557 17.3748C10.7845 17.5495 10.9577 17.7735 11.06 18.0254C11.1679 18.2697 11.2072 18.5339 11.1747 18.7949C11.1678 18.97 11.1104 19.1406 11.0082 19.2903C10.9074 19.4398 10.7629 19.5619 10.5903 19.6436C10.4216 19.7306 10.2302 19.7764 10.0354 19.7764C9.84064 19.7764 9.64929 19.7306 9.4806 19.6436C9.12931 19.4849 8.85165 19.221 8.69615 18.898C8.54065 18.5751 8.51718 18.2136 8.62986 17.8768C8.69303 17.7194 8.78015 17.5704 8.88878 17.4342C8.91437 17.4088 8.92882 17.376 8.92947 17.3418C8.92952 17.3074 8.91497 17.2744 8.88878 17.2493C8.40354 16.552 7.83287 15.9051 7.1873 15.3206L6.78042 14.9738C5.22709 15.6792 3.86404 16.6776 2.78564 17.8999C9.07372 20.7632 14.8662 28.5407 17.3259 38.4286C18.1112 41.5524 18.5008 44.7451 18.4873 47.9466C19.9336 48.9044 21.1246 49.6342 21.8829 50.0768C22.1445 50.2362 22.4539 50.3214 22.7706 50.3211C23.0872 50.3204 23.3963 50.2353 23.6584 50.0768C24.768 49.4162 26.8579 48.1249 29.3028 46.4043C32.9727 43.8824 36.3461 41.0342 39.3712 37.9035ZM36.094 35.5026C36.094 36.0666 35.843 36.6076 35.3963 37.0065C34.9496 37.4053 34.3437 37.6294 33.7119 37.6294H27.9195V42.7946C27.9195 43.1959 27.7912 43.589 27.5496 43.9274C24.08 38.7556 20.8916 32.3354 18.4134 25.1754C18.1471 24.4092 17.9005 23.6464 17.6736 22.8868C17.7732 22.3961 18.0624 21.9521 18.491 21.6322C18.9195 21.3124 19.4601 21.1369 20.0187 21.1364H25.567C26.1985 21.1373 26.8038 21.3616 27.2503 21.7603C27.6968 22.159 27.9481 22.6994 27.9491 23.2633V28.4384H33.7415C34.0533 28.4405 34.3617 28.4975 34.6488 28.6061C34.936 28.7146 35.1964 28.8726 35.4152 29.071C35.634 29.2695 35.8069 29.5044 35.924 29.7625C36.0411 30.0206 36.1001 30.2967 36.0977 30.5751L36.094 35.5026Z" fill="#6B93F6"/>
<path d="M10.1948 18.9757C10.2926 18.9249 10.3717 18.8497 10.4223 18.7593C10.4729 18.669 10.4928 18.5674 10.4796 18.4671C10.4788 18.352 10.4471 18.2387 10.3872 18.1368C10.33 18.0367 10.2478 17.9496 10.1467 17.8825C10.0723 17.8225 9.97963 17.7835 9.88043 17.7702C9.7819 17.7535 9.68001 17.7639 9.58822 17.8C9.48667 17.8345 9.39906 17.8955 9.3367 17.975C9.27624 18.0554 9.2417 18.1491 9.23683 18.2458C9.21835 18.3844 9.24561 18.5248 9.31527 18.6498C9.38492 18.7747 9.49393 18.8788 9.6289 18.9492C9.71352 19.0001 9.81188 19.0298 9.91372 19.0351C10.0118 19.0393 10.1093 19.0187 10.1948 18.9757Z" fill="#6B93F6"/>
<path d="M42.5492 20.6969C42.4799 20.7179 42.4184 20.7556 42.3717 20.8059C42.3254 20.8619 42.2972 20.9282 42.2903 20.9975C42.2815 21.0766 42.2916 21.1565 42.3199 21.2319C42.3496 21.306 42.3948 21.3743 42.453 21.4334C42.5141 21.4905 42.5869 21.5365 42.6676 21.5688C42.7483 21.5993 42.8351 21.615 42.9228 21.615C42.983 21.6116 43.042 21.5982 43.0966 21.5754C43.15 21.5506 43.1968 21.5156 43.2335 21.473C43.2724 21.4311 43.2991 21.3811 43.3112 21.3277C43.3241 21.2744 43.3241 21.2192 43.3112 21.1659C43.2968 21.1075 43.2744 21.051 43.2446 20.9975C43.1818 20.8867 43.0788 20.7982 42.9524 20.7465C42.8279 20.6905 42.686 20.6731 42.5492 20.6969Z" fill="#FF007F"/>
<path d="M42.6854 23.8604C42.6179 23.8268 42.5403 23.8129 42.4635 23.8207C42.3877 23.8277 42.3158 23.8541 42.2564 23.8967C42.2029 23.9367 42.1631 23.9893 42.1417 24.0486C42.1227 24.108 42.1227 24.1709 42.1417 24.2302C42.1578 24.3258 42.2055 24.4148 42.2787 24.486C42.3518 24.5572 42.4471 24.6073 42.5523 24.6299C42.6222 24.6488 42.6969 24.6488 42.7668 24.6299C42.8386 24.6131 42.903 24.5774 42.9518 24.5275C42.9966 24.4831 43.0262 24.428 43.0368 24.369C43.0511 24.3092 43.0447 24.247 43.0183 24.1906C42.995 24.1165 42.9528 24.0481 42.895 23.9908C42.8373 23.9335 42.7656 23.8889 42.6854 23.8604Z" fill="#FF007F"/>
<path d="M43.4729 24.8575C43.851 25.2671 44.1818 25.7097 44.4605 26.1785C44.8558 26.8649 45.122 27.6046 45.2484 28.3681C45.4515 27.5527 45.5557 26.72 45.5591 25.8846C45.5591 25.4388 45.5369 25.0061 45.5036 24.5834L45.4518 24.4843C44.9886 23.5653 44.3504 22.725 43.5654 22.0008L43.5469 21.9876H43.5173H43.484C43.484 21.9876 43.484 21.9876 43.4544 21.9876C43.3192 22.053 43.1681 22.0881 43.0143 22.09C42.6785 22.091 42.3553 21.9755 42.1131 21.7679C41.8708 21.5602 41.7284 21.2766 41.716 20.977C41.6976 20.8032 41.7483 20.6292 41.8592 20.4855C41.9701 20.3418 42.1342 20.2375 42.3226 20.191C42.4441 20.1645 42.571 20.1645 42.6925 20.191C42.9149 20.2145 43.1272 20.2871 43.3102 20.4024C43.5003 20.5095 43.6579 20.657 43.7688 20.8317C43.8495 20.9465 43.8989 21.0766 43.9131 21.2115C43.9268 21.3448 43.9066 21.4791 43.8539 21.6045C43.837 21.6304 43.8305 21.6607 43.8354 21.6904C43.8431 21.7191 43.8613 21.7446 43.8872 21.763C44.4754 22.2952 44.9817 22.8949 45.3926 23.5464C44.1794 16.436 37.551 13.1929 31.5922 13.8038C34.5513 17.7669 37.0739 23.1963 38.62 29.3919C39.2716 31.9955 39.7105 34.6379 39.9331 37.2983C41.7001 35.4034 43.1651 33.2996 44.2867 31.0465C43.9871 30.0705 43.4659 29.1599 42.7554 28.3714C42.7422 28.3511 42.7211 28.3359 42.6962 28.3285C42.6711 28.3202 42.6435 28.3202 42.6185 28.3285C42.4988 28.3617 42.3739 28.3774 42.2486 28.3747C41.983 28.3628 41.7305 28.268 41.5351 28.1068C41.3398 27.9457 41.214 27.7284 41.1796 27.493C41.1518 27.3764 41.1598 27.2554 41.2028 27.1426C41.2458 27.0298 41.3221 26.9295 41.4238 26.8523C41.5283 26.7705 41.6565 26.7167 41.7936 26.697C41.9169 26.6766 42.0439 26.6834 42.1635 26.7169C42.3568 26.7555 42.5364 26.836 42.6867 26.9512C42.837 27.0663 42.9533 27.2127 43.0254 27.3774C43.0778 27.481 43.1031 27.594 43.0993 27.7076C43.0964 27.8233 43.0621 27.9366 42.9995 28.0379C42.9791 28.0564 42.9678 28.0813 42.9678 28.1072C42.9678 28.1332 42.9791 28.1581 42.9995 28.1766C43.3771 28.5865 43.7079 29.029 43.9871 29.4976C44.1936 29.8352 44.368 30.1876 44.5086 30.5511C44.701 30.1086 44.8785 29.6594 45.0154 29.2103C44.9792 28.7799 44.9 28.3533 44.7786 27.9355C44.4894 26.883 43.9453 25.9 43.1844 25.0557C43.1712 25.0354 43.1502 25.0201 43.1252 25.0127C43.0999 25.006 43.0729 25.006 43.0476 25.0127C42.9277 25.0455 42.803 25.0622 42.6777 25.0623C42.4148 25.0465 42.1662 24.9495 41.9745 24.7881C41.7829 24.6266 41.6601 24.4106 41.6272 24.1772C41.5994 24.0607 41.6074 23.9396 41.6504 23.8268C41.6934 23.714 41.7697 23.6137 41.8713 23.5365C41.971 23.4588 42.0914 23.4052 42.2209 23.3809C42.3505 23.3566 42.4848 23.3624 42.6111 23.3978C42.808 23.438 42.9909 23.5208 43.1437 23.6389C43.2953 23.7559 43.4122 23.9045 43.484 24.0715C43.5364 24.1752 43.5617 24.2881 43.558 24.4018C43.5558 24.5175 43.5215 24.631 43.4581 24.732C43.4429 24.7524 43.4363 24.777 43.4396 24.8014C43.4426 24.8231 43.4545 24.8431 43.4729 24.8575Z" fill="#FF007F"/>
<path d="M42.2446 27.18C42.1758 27.15 42.099 27.1374 42.0227 27.1437C41.9469 27.1507 41.875 27.177 41.8155 27.2196C41.762 27.2596 41.7223 27.3123 41.7009 27.3715C41.6806 27.4307 41.6806 27.494 41.7009 27.5532C41.7208 27.6466 41.7709 27.7327 41.8451 27.8009C41.9177 27.8694 42.0119 27.9166 42.1152 27.9363C42.1851 27.9552 42.2597 27.9552 42.3297 27.9363C42.4004 27.9192 42.4644 27.8849 42.5146 27.8372C42.5586 27.7905 42.5891 27.735 42.6034 27.6754C42.6146 27.6152 42.6069 27.5535 42.5812 27.497C42.5577 27.4239 42.5146 27.357 42.4554 27.3022C42.3955 27.2488 42.3237 27.2071 42.2446 27.18Z" fill="#FF007F"/>
<path d="M56.8203 44.0705V17.124H59.6893L68.2589 35.0218V17.124H71.7241V44.0705H69.0787L60.3972 25.6737V44.0705H56.8203Z" fill="#FF007F"/>
<path d="M76.7255 44.0705V17.124H80.8613V44.0705H76.7255Z" fill="#FF007F"/>
<path d="M92.859 44.3696C91.3288 44.4171 89.8155 44.0706 88.4996 43.3716C87.3529 42.6923 86.4479 41.7342 85.8915 40.6104C85.266 39.3154 84.9154 37.9279 84.8575 36.5185L88.5835 35.6203C88.6548 36.5509 88.8138 37.4746 89.0585 38.3815C89.2976 39.1934 89.744 39.9449 90.3626 40.5771C90.6923 40.8615 91.0842 41.0821 91.5137 41.2252C91.9433 41.3683 92.4012 41.4308 92.859 41.4088C93.3117 41.4361 93.7658 41.3759 94.1901 41.2324C94.6145 41.0889 94.9992 40.8654 95.3181 40.5771C95.9345 39.918 96.2415 39.0717 96.1751 38.2151C96.2362 37.1741 95.9086 36.1444 95.2436 35.2876C94.557 34.4611 93.7732 33.7027 92.9056 33.0254L87.829 29.0334C86.9139 28.3437 86.166 27.4947 85.6307 26.5383C85.1325 25.4522 84.8945 24.285 84.9321 23.1118C84.8703 22.2731 85.004 21.4322 85.3247 20.642C85.6453 19.8518 86.146 19.1296 86.795 18.5209C87.4942 17.9518 88.3126 17.5118 89.2031 17.2264C90.0935 16.9409 91.0385 16.8155 91.9834 16.8575C93.0469 16.8378 94.1061 16.9841 95.1132 17.29C95.9788 17.5268 96.7595 17.9628 97.3767 18.5542C98.0363 19.183 98.5353 19.9321 98.8391 20.7498C99.2404 21.735 99.488 22.7649 99.575 23.8104L96.0074 24.6421C95.9427 23.8214 95.7899 23.0082 95.551 22.2136C95.3761 21.5173 94.9587 20.8884 94.3587 20.4171C93.6999 19.9156 92.8471 19.6648 91.9834 19.7185C91.5371 19.6937 91.0898 19.7485 90.6675 19.8799C90.2453 20.0113 89.8566 20.2165 89.5243 20.4837C89.2161 20.7753 88.9798 21.1213 88.8306 21.4995C88.6813 21.8777 88.6226 22.2796 88.658 22.6793C88.6351 23.3771 88.7879 24.0706 89.1051 24.7086C89.5068 25.3353 90.0232 25.8975 90.6327 26.372L95.7466 30.3641C96.9242 31.2893 97.9413 32.3656 98.7646 33.5577C99.6614 34.8675 100.114 36.3811 100.069 37.9157C100.099 39.1216 99.7782 40.3138 99.1372 41.3755C98.5286 42.3117 97.6335 43.0734 96.557 43.5712C95.4169 44.1055 94.1465 44.3798 92.859 44.3696Z" fill="#FF007F"/>
<path d="M103.394 44.0705V17.124H107.604V28.7676H115.317V17.124H119.527V44.0705H115.317V31.4622H107.567V44.0705H103.394Z" fill="#FF007F"/>
<path d="M122.602 44.0705L129.011 17.124H133.072L139.518 44.0705H135.531L134.134 37.284H127.986L126.533 44.0705H122.602ZM128.564 34.5894H133.594L131.06 22.4468L128.564 34.5894Z" fill="#FF007F"/>
<path d="M145.506 44.0705V17.124H149.716V28.7676H157.466V17.124H161.677V44.0705H157.466V31.4622H149.716V44.0705H145.506Z" fill="#6B93F6"/>
<path d="M166.391 44.0705V17.124H178.091V19.9185H170.639V28.8341H176.712V31.4955H170.639V41.3759H178.202V44.0705H166.391Z" fill="#6B93F6"/>
<path d="M179.925 44.0705L186.334 17.124H190.395L196.841 44.0705H192.817L191.439 37.284H185.365L183.912 44.0705H179.925ZM185.887 34.5894H190.954L188.421 22.4468L185.887 34.5894Z" fill="#6B93F6"/>
<path d="M199.906 44.0705V17.124H204.116V41.3759H211.829V44.0705H199.906Z" fill="#6B93F6"/>
<path d="M217.195 44.0697V19.9509H212.09V17.1565H226.351V19.9509H221.396V44.0697H217.195Z" fill="#6B93F6"/>
<path d="M229.266 44.0705V17.124H233.477V28.7676H241.255V17.124H245.465V44.0705H241.255V31.4622H233.505V44.0705H229.266Z" fill="#6B93F6"/>
</svg>
