<svg width="51" height="50" viewBox="0 0 51 50" fill="none" xmlns="http://www.w3.org/2000/svg">
<g clip-path="url(#clip0_20_186)">
<rect width="50.7368" height="49.7368" rx="24.8684" fill="#FF007F"/>
<path d="M26.2451 21.1199C28.6439 21.1199 30.6238 23.0998 30.6238 25.4986C30.6238 27.9354 28.6439 29.8773 26.2451 29.8773C23.8083 29.8773 21.8664 27.9354 21.8664 25.4986C21.8664 23.0998 23.8083 21.1199 26.2451 21.1199ZM26.2451 28.3542C27.8062 28.3542 29.0627 27.0977 29.0627 25.4986C29.0627 23.9375 27.8062 22.681 26.2451 22.681C24.6459 22.681 23.3894 23.9375 23.3894 25.4986C23.3894 27.0977 24.684 28.3542 26.2451 28.3542ZM31.8042 20.9676C31.8042 21.5387 31.3473 21.9956 30.7761 21.9956C30.205 21.9956 29.7481 21.5387 29.7481 20.9676C29.7481 20.3964 30.205 19.9395 30.7761 19.9395C31.3473 19.9395 31.8042 20.3964 31.8042 20.9676ZM34.6979 21.9956C34.7741 23.4044 34.7741 27.6308 34.6979 29.0396C34.6218 30.4103 34.3172 31.5907 33.3272 32.6187C32.3372 33.6087 31.1188 33.9133 29.7481 33.9894C28.3393 34.0656 24.1129 34.0656 22.7041 33.9894C21.3334 33.9133 20.153 33.6087 19.125 32.6187C18.135 31.5907 17.8304 30.4103 17.7542 29.0396C17.6781 27.6308 17.6781 23.4044 17.7542 21.9956C17.8304 20.6249 18.135 19.4064 19.125 18.4165C20.153 17.4265 21.3334 17.1219 22.7041 17.0458C24.1129 16.9696 28.3393 16.9696 29.7481 17.0458C31.1188 17.1219 32.3372 17.4265 33.3272 18.4165C34.3172 19.4064 34.6218 20.6249 34.6979 21.9956ZM32.8703 30.5245C33.3272 29.4203 33.213 26.7551 33.213 25.4986C33.213 24.2801 33.3272 21.6148 32.8703 20.4726C32.5657 19.7491 31.9945 19.1399 31.2711 18.8734C30.1288 18.4165 27.4635 18.5307 26.2451 18.5307C24.9886 18.5307 22.3233 18.4165 21.2191 18.8734C20.4576 19.178 19.8865 19.7491 19.5819 20.4726C19.125 21.6148 19.2392 24.2801 19.2392 25.4986C19.2392 26.7551 19.125 29.4203 19.5819 30.5245C19.8865 31.2861 20.4576 31.8572 21.2191 32.1618C22.3233 32.6187 24.9886 32.5045 26.2451 32.5045C27.4635 32.5045 30.1288 32.6187 31.2711 32.1618C31.9945 31.8572 32.6038 31.2861 32.8703 30.5245Z" fill="white"/>
</g>
<defs>
<clipPath id="clip0_20_186">
<rect width="51" height="50" fill="white"/>
</clipPath>
</defs>
</svg>
