<svg width="91" height="69" viewBox="0 0 91 69" fill="none" xmlns="http://www.w3.org/2000/svg">
<path d="M68.2019 4.51465C68.2805 4.59757 68.3634 4.68485 68.4376 4.77213C68.3649 4.68106 68.2862 4.59504 68.2019 4.51465Z" fill="#1D1D1B"/>
<path d="M58.1208 0.00652266C58.2371 -0.00217422 58.3538 -0.00217422 58.47 0.00652266C58.3521 0.0283431 58.2518 0.00652266 58.1208 0.00652266Z" fill="#1D1D1B"/>
<path d="M60.7612 0.351318C61.0056 0.399323 61.2413 0.460421 61.4813 0.525882C61.2413 0.442964 61.0056 0.399323 60.7612 0.351318Z" fill="#1D1D1B"/>
<path d="M59.6262 0.14624C59.8706 0.181153 60.115 0.22043 60.355 0.268435C60.115 0.22043 59.8706 0.172425 59.6262 0.14624Z" fill="#1D1D1B"/>
<path d="M61.8828 0.639404C62.1228 0.70923 62.3541 0.787783 62.5854 0.866337C62.3541 0.779055 62.1228 0.704866 61.8828 0.639404Z" fill="#1D1D1B"/>
<path d="M67.3337 3.66797C67.4167 3.74216 67.5039 3.82071 67.5869 3.90363L67.3337 3.66797Z" fill="#1D1D1B"/>
<path d="M71.8589 11.436C71.8894 11.5713 71.92 11.7197 71.9505 11.8506C71.92 11.7022 71.8894 11.5713 71.8589 11.436Z" fill="#1D1D1B"/>
<path d="M71.9771 11.9817L72.0425 12.3046C72.0294 12.1955 72.0076 12.0864 71.9771 11.9817Z" fill="#1D1D1B"/>
<path d="M71.6235 10.5764C71.6584 10.6768 71.6846 10.7815 71.7108 10.8819C71.6875 10.7785 71.6584 10.6765 71.6235 10.5764Z" fill="#1D1D1B"/>
<path d="M71.75 10.9954C71.7849 11.135 71.8242 11.279 71.8547 11.4318L71.75 10.9954Z" fill="#1D1D1B"/>
<path d="M72.1426 12.8938C72.1644 13.0422 72.1862 13.1775 72.2037 13.3302C72.1862 13.1862 72.1644 13.0422 72.1426 12.8938Z" fill="#1D1D1B"/>
<path d="M72.3525 15.0583C72.346 15.179 72.346 15.2999 72.3525 15.4206C72.3656 15.2809 72.3612 15.1762 72.3525 15.0583Z" fill="#1D1D1B"/>
<path d="M72.374 15.5645V16.0663C72.3784 15.8961 72.3784 15.7172 72.374 15.5645Z" fill="#1D1D1B"/>
<path d="M68.1888 4.50156C68.1059 4.40992 68.0186 4.32263 67.927 4.23535C68.0186 4.32263 68.0797 4.40992 68.1888 4.50156Z" fill="#1D1D1B"/>
<path d="M72.2734 13.9717C72.2734 14.1332 72.304 14.2903 72.3171 14.4474C72.3127 14.2684 72.2909 14.1113 72.2734 13.9717Z" fill="#1D1D1B"/>
<path d="M72.313 14.4385C72.313 14.5912 72.3348 14.7527 72.3435 14.9098C72.3392 14.7527 72.3304 14.5912 72.313 14.4385Z" fill="#1D1D1B"/>
<path d="M70.2051 7.22046C70.2705 7.33393 70.336 7.44739 70.3971 7.56086C70.3447 7.44739 70.2618 7.33393 70.2051 7.22046Z" fill="#1D1D1B"/>
<path d="M69.5203 6.11621C69.5945 6.22531 69.6643 6.32569 69.7341 6.43915C69.6643 6.3606 69.5945 6.24277 69.5203 6.11621Z" fill="#1D1D1B"/>
<path d="M71.1873 9.24976C71.2222 9.34577 71.2614 9.44178 71.292 9.53342C71.2467 9.44305 71.2115 9.34791 71.1873 9.24976Z" fill="#1D1D1B"/>
<path d="M70.9819 8.78271C71.0343 8.90055 71.0823 9.01838 71.1303 9.13621C71.0823 9.01838 71.0343 8.89182 70.9819 8.78271Z" fill="#1D1D1B"/>
<path d="M68.7561 5.13867C68.839 5.23905 68.9219 5.33506 69.0005 5.41797C68.9219 5.33506 68.839 5.24341 68.7561 5.13867Z" fill="#1D1D1B"/>
<path d="M71.9245 19.7321C71.9158 19.7051 71.9158 19.6761 71.9245 19.6492C71.9376 19.6754 71.9288 19.7015 71.9245 19.7321Z" fill="#1D1D1B"/>
<path d="M68.6167 27.1686L68.7127 27.0159C68.6822 27.0639 68.656 27.1075 68.6167 27.1686Z" fill="#1D1D1B"/>
<path d="M68.1714 27.8451C68.2063 27.7883 68.2412 27.736 68.2805 27.6836C68.2406 27.735 68.2042 27.7889 68.1714 27.8451Z" fill="#1D1D1B"/>
<path d="M72.3611 16.7647V16.6643C72.3633 16.6977 72.3633 16.7313 72.3611 16.7647Z" fill="#1D1D1B"/>
<path d="M72.2781 17.7552V17.6592C72.2847 17.6908 72.2847 17.7235 72.2781 17.7552Z" fill="#1D1D1B"/>
<path d="M72.2432 18.0609V17.9692C72.2453 17.9997 72.2453 18.0304 72.2432 18.0609Z" fill="#1D1D1B"/>
<path d="M56.1963 0.0719003C56.445 0.0719003 56.6894 0.0326235 56.9382 0.0195312C56.6894 0.0326235 56.4407 0.0500799 56.1963 0.0719003Z" fill="#1D1D1B"/>
<path d="M55.0659 0.220461C55.3103 0.17682 55.5547 0.146271 55.8035 0.115723C55.5547 0.146271 55.3103 0.172456 55.0659 0.220461Z" fill="#1D1D1B"/>
<path d="M72.0729 19.0601C72.0704 19.0252 72.0704 18.9902 72.0729 18.9553C72.086 18.9902 72.0772 19.0121 72.0729 19.0601Z" fill="#1D1D1B"/>
<path d="M71.4662 21.3513C71.4727 21.3129 71.486 21.2759 71.5055 21.2422C71.4904 21.2557 71.4789 21.2727 71.4721 21.2918C71.4652 21.3108 71.4632 21.3313 71.4662 21.3513Z" fill="#1D1D1B"/>
<path d="M70.8335 22.9878C70.8404 22.9488 70.8553 22.9116 70.8771 22.8787C70.8607 22.9143 70.8461 22.9507 70.8335 22.9878Z" fill="#1D1D1B"/>
<path d="M71.8416 20.0551C71.8482 20.0183 71.857 19.9819 71.8677 19.946C71.8631 19.9833 71.8544 20.0199 71.8416 20.0551Z" fill="#1D1D1B"/>
<path d="M71.75 20.3562C71.7546 20.3204 71.7634 20.2852 71.7762 20.2515C71.7801 20.2884 71.7708 20.3255 71.75 20.3562Z" fill="#1D1D1B"/>
<path d="M26.2151 1.86128C26.6515 1.61253 27.1228 1.38996 27.5854 1.18921C27.1165 1.3876 26.659 1.61197 26.2151 1.86128Z" fill="#1D1D1B"/>
<path d="M39.9707 44.8869C39.9693 43.1376 39.876 41.3895 39.6914 39.65C39.5088 39.2698 39.412 38.8541 39.4077 38.4324V37.3676C39.1983 35.8809 38.9248 34.3767 38.5873 32.8551C38.4956 32.4187 38.3996 32.0128 38.308 31.6026H32.5867C31.8446 31.6015 31.1331 31.3074 30.6068 30.7843C30.0804 30.2613 29.7819 29.5516 29.7762 28.8096V22.2634C29.7762 21.5177 30.0722 20.8023 30.5991 20.2746C31.126 19.7468 31.8409 19.4498 32.5867 19.4486H33.8086C30.505 13.0683 26.2151 8.24598 21.6764 5.8501C19.7912 8.41618 18.6216 11.8202 18.6216 16.0708C18.6216 27.4174 32.5081 39.3314 40.3198 45.1356L39.9707 44.8869Z" fill="#FF007F"/>
<path d="M33.4855 0.00649723C33.0704 -0.000875777 32.6552 0.0136915 32.2417 0.0501381C32.6607 0.00649723 33.0709 0.00649723 33.4855 0.00649723Z" fill="#1D1D1B"/>
<path d="M30.2476 0.342503C30.6578 0.255221 31.068 0.185395 31.4826 0.128662C31.0675 0.178342 30.6552 0.249719 30.2476 0.342503Z" fill="#1D1D1B"/>
<path d="M35.9863 7.30761C36.1224 7.10797 36.1856 6.86756 36.1653 6.62681C36.145 6.38517 36.0434 6.15751 35.8772 5.98093C35.7924 5.89636 35.6971 5.82303 35.5936 5.76272C35.5037 5.70609 35.4023 5.67031 35.2968 5.65799C35.1925 5.64627 35.0869 5.65668 34.987 5.68853C34.8871 5.72417 34.7952 5.77903 34.7164 5.85001C34.6407 5.92422 34.5812 6.0134 34.5418 6.11185C34.4909 6.25295 34.4686 6.40281 34.4764 6.55262C34.4861 6.7056 34.5293 6.85458 34.6029 6.98903C34.674 7.12391 34.772 7.24274 34.8909 7.33816C35.0125 7.4324 35.1522 7.50072 35.3012 7.53891C35.4271 7.56885 35.5591 7.56126 35.6809 7.51709C35.8001 7.47684 35.9058 7.40433 35.9863 7.30761Z" fill="#6B93F6"/>
<path d="M65.0727 31.9473C64.822 28.2569 64.2925 24.5908 63.4885 20.9803C61.6469 12.6886 58.5964 5.44418 55.0658 0.202913C53.0151 0.523779 51.0731 1.33857 49.4073 2.57706C47.7416 3.81554 46.402 5.44056 45.5041 7.31202C44.6711 5.56895 43.4524 4.03832 41.9402 2.8361C40.4279 1.63389 38.6619 0.791621 36.7759 0.373113L36.6275 0.346928H36.5752C36.4661 0.320744 36.3526 0.294559 36.2217 0.277103C34.7552 -0.00529114 33.2547 -0.0656078 31.7703 0.0981752C33.0191 1.37707 34.051 2.85112 34.8252 4.46226C34.8434 4.51941 34.8823 4.56767 34.9343 4.59755C34.9863 4.62556 35.0464 4.6348 35.1045 4.62374C35.3667 4.61819 35.6266 4.67345 35.8638 4.78521C36.1014 4.89651 36.3104 5.06072 36.4748 5.26526C36.744 5.54276 36.9412 5.8819 37.0492 6.25312C37.1572 6.62433 37.1728 7.01633 37.0945 7.39493C37.0593 7.61834 36.9727 7.8305 36.8414 8.01463C36.7109 8.19771 36.5389 8.34727 36.3395 8.45104C36.1422 8.55847 35.9225 8.61825 35.698 8.62561C35.4728 8.63077 35.2493 8.58606 35.0434 8.49468C34.4997 8.27664 34.0606 7.85789 33.8171 7.32511C33.577 6.79016 33.5551 6.18269 33.756 5.63184C33.8427 5.37972 33.993 5.15424 34.1924 4.97723L34.2317 4.93795C34.2349 4.92064 34.2349 4.90289 34.2317 4.88558C34.2361 4.86841 34.2361 4.85039 34.2317 4.83321C34.2334 4.8158 34.2334 4.79826 34.2317 4.78084C33.3885 3.08836 32.2707 1.54732 30.9237 0.22037C29.6609 0.435108 28.4315 0.813611 27.2666 1.3463C27.428 1.50778 27.5939 1.66925 27.751 1.83945C28.4592 2.60184 29.0866 3.43546 29.6232 4.32698C29.6401 4.37428 29.6744 4.41333 29.7192 4.43608C29.7656 4.45349 29.8168 4.45349 29.8632 4.43608C30.0818 4.3981 30.3062 4.41306 30.5178 4.47972C30.728 4.54811 30.9193 4.66468 31.0764 4.82012C31.3449 5.05093 31.5493 5.34703 31.6699 5.67985C31.7972 6.0027 31.8437 6.35177 31.8052 6.69668C31.7971 6.92813 31.7294 7.15357 31.6088 7.35129C31.4899 7.54883 31.3194 7.71025 31.1157 7.81825C30.9167 7.93316 30.6909 7.99365 30.4611 7.99365C30.2313 7.99365 30.0055 7.93316 29.8065 7.81825C29.392 7.60848 29.0644 7.25975 28.8809 6.83299C28.6975 6.40622 28.6698 5.92856 28.8027 5.48346C28.8773 5.27544 28.9801 5.07867 29.1082 4.89867C29.1384 4.86505 29.1555 4.82166 29.1562 4.77648C29.1563 4.73114 29.1391 4.68746 29.1082 4.65428C28.5357 3.73287 27.8624 2.87807 27.1007 2.10566L26.6207 1.64743C24.788 2.57954 23.1798 3.89885 21.9075 5.51401C29.3264 9.29768 36.1606 19.5751 39.0627 32.6412C39.9892 36.769 40.4489 40.988 40.433 45.2185C42.1394 46.4841 43.5446 47.4485 44.4393 48.0333C44.7479 48.244 45.113 48.3566 45.4867 48.3563C45.8601 48.3553 46.2248 48.2428 46.534 48.0333C47.8433 47.1605 50.309 45.4542 53.1936 43.1805C57.5234 39.8479 61.5035 36.0842 65.0727 31.9473ZM61.2061 28.7746C61.2061 29.52 60.91 30.2348 60.3829 30.7619C59.8559 31.289 59.141 31.5851 58.3956 31.5851H51.5615V38.4105C51.5615 38.9409 51.4101 39.4602 51.1251 39.9074C47.0315 33.0732 43.2697 24.5894 40.3457 15.1281C40.0315 14.1156 39.7406 13.1075 39.4729 12.1038C39.5904 11.4553 39.9317 10.8687 40.4373 10.446C40.9429 10.0234 41.5808 9.7915 42.2398 9.79082H48.7859C49.5309 9.79197 50.2451 10.0884 50.7719 10.6153C51.2987 11.1421 51.5952 11.8563 51.5964 12.6013V19.4398H58.4305C58.7985 19.4427 59.1622 19.518 59.5011 19.6614C59.8399 19.8049 60.1472 20.0136 60.4053 20.2758C60.6635 20.538 60.8674 20.8485 61.0056 21.1895C61.1437 21.5306 61.2133 21.8955 61.2105 22.2634L61.2061 28.7746Z" fill="#6B93F6"/>
<path d="M30.6491 6.93667C30.7645 6.86956 30.8578 6.7702 30.9175 6.65081C30.9772 6.53141 31.0007 6.39718 30.9852 6.2646C30.9842 6.1125 30.9468 5.96285 30.8761 5.82819C30.8087 5.69583 30.7116 5.58083 30.5924 5.49216C30.5045 5.4129 30.3952 5.36129 30.2782 5.34378C30.1619 5.32169 30.0417 5.33538 29.9334 5.38305C29.8136 5.42876 29.7103 5.50932 29.6367 5.61435C29.5654 5.72059 29.5246 5.84438 29.5188 5.97221C29.497 6.15536 29.5292 6.3409 29.6114 6.50603C29.6936 6.67116 29.8222 6.8087 29.9814 6.90176C30.0813 6.96899 30.1973 7.00817 30.3175 7.01522C30.4332 7.02079 30.5482 6.99356 30.6491 6.93667Z" fill="#6B93F6"/>
<path d="M68.822 9.21028C68.7402 9.23799 68.6677 9.28784 68.6125 9.35429C68.558 9.42828 68.5248 9.51584 68.5165 9.60741C68.5062 9.712 68.5181 9.81759 68.5515 9.91726C68.5866 10.0151 68.6399 10.1054 68.7086 10.1835C68.7806 10.2589 68.8665 10.3197 68.9617 10.3624C69.0569 10.4027 69.1593 10.4235 69.2628 10.4235C69.3338 10.419 69.4034 10.4012 69.4679 10.3711C69.5309 10.3383 69.586 10.2921 69.6294 10.2358C69.6753 10.1804 69.7068 10.1144 69.721 10.0438C69.7363 9.97335 69.7363 9.90045 69.721 9.82998C69.7041 9.75285 69.6777 9.6781 69.6425 9.60741C69.5684 9.461 69.4469 9.34407 69.2977 9.27574C69.1508 9.20179 68.9835 9.17876 68.822 9.21028Z" fill="#FF007F"/>
<path d="M68.9831 13.3911C68.9034 13.3467 68.8118 13.3284 68.7212 13.3387C68.6318 13.348 68.5469 13.3828 68.4768 13.4391C68.4137 13.4919 68.3668 13.5615 68.3415 13.6399C68.3191 13.7183 68.3191 13.8015 68.3415 13.8799C68.3606 14.0061 68.4168 14.1238 68.5031 14.2179C68.5894 14.3119 68.7018 14.3781 68.8259 14.4079C68.9085 14.433 68.9965 14.433 69.0791 14.4079C69.1637 14.3858 69.2397 14.3386 69.2973 14.2727C69.3502 14.214 69.3851 14.1412 69.3976 14.0632C69.4145 13.9842 69.4069 13.902 69.3758 13.8275C69.3482 13.7295 69.2985 13.6392 69.2303 13.5635C69.1622 13.4878 69.0776 13.4288 68.9831 13.3911Z" fill="#FF007F"/>
<path d="M69.913 14.7092C70.359 15.2505 70.7493 15.8353 71.0782 16.4548C71.5446 17.3618 71.8586 18.3393 72.0077 19.3482C72.2474 18.2706 72.3703 17.1703 72.3743 16.0664C72.3743 15.4773 72.3481 14.9056 72.3088 14.347L72.2478 14.216C71.7013 13.0016 70.9482 11.8912 70.0221 10.9342L70.0002 10.9168H69.9653H69.9261C69.9261 10.9168 69.9261 10.9168 69.8911 10.9168C69.7315 11.0032 69.5533 11.0497 69.3718 11.0521C68.9756 11.0535 68.5943 10.9009 68.3085 10.6265C68.0227 10.3521 67.8547 9.97732 67.84 9.58138C67.8183 9.35176 67.8782 9.12184 68.009 8.93193C68.1399 8.74202 68.3334 8.60423 68.5557 8.54272C68.6991 8.50775 68.8488 8.50775 68.9921 8.54272C69.2545 8.57377 69.505 8.66976 69.7209 8.82203C69.9453 8.96367 70.1312 9.15855 70.2621 9.38936C70.3572 9.54108 70.4155 9.71295 70.4323 9.89123C70.4484 10.0674 70.4246 10.2449 70.3625 10.4106C70.3425 10.4448 70.3348 10.4848 70.3406 10.524C70.3497 10.5619 70.3712 10.5957 70.4017 10.62C71.0957 11.3233 71.693 12.1158 72.1779 12.9766C70.7465 3.58075 62.9261 -0.704783 55.8955 0.102573C59.3868 5.33948 62.3631 12.514 64.1873 20.7011C64.9561 24.1415 65.4739 27.6332 65.7365 31.1487C67.8212 28.6448 69.5498 25.8648 70.8731 22.8875C70.5196 21.5977 69.9046 20.3945 69.0663 19.3526C69.0508 19.3257 69.0259 19.3056 68.9965 19.2958C68.967 19.2848 68.9344 19.2848 68.9049 19.2958C68.7637 19.3398 68.6163 19.3604 68.4684 19.3569C68.155 19.3412 67.8571 19.2159 67.6266 19.0029C67.3961 18.79 67.2477 18.5029 67.2072 18.1917C67.1744 18.0377 67.1839 17.8778 67.2346 17.7287C67.2853 17.5797 67.3754 17.4471 67.4953 17.3451C67.6186 17.2371 67.7698 17.166 67.9317 17.14C68.0771 17.113 68.2269 17.122 68.3681 17.1662C68.5961 17.2173 68.808 17.3236 68.9853 17.4758C69.1626 17.628 69.2998 17.8214 69.3849 18.039C69.4467 18.1759 69.4766 18.3252 69.4722 18.4754C69.4687 18.6282 69.4283 18.778 69.3544 18.9118C69.3304 18.9363 69.3169 18.9692 69.3169 19.0034C69.3169 19.0377 69.3304 19.0706 69.3544 19.0951C69.7999 19.6368 70.1902 20.2215 70.5196 20.8407C70.7632 21.2868 70.969 21.7525 71.1349 22.2329C71.3618 21.6481 71.5713 21.0546 71.7328 20.4611C71.6901 19.8923 71.5967 19.3286 71.4535 18.7765C71.1123 17.3858 70.4702 16.0867 69.5726 14.971C69.557 14.9442 69.5322 14.924 69.5027 14.9143C69.4728 14.9054 69.441 14.9054 69.4111 14.9143C69.2697 14.9576 69.1226 14.9796 68.9747 14.9798C68.6645 14.9589 68.3712 14.8308 68.1451 14.6174C67.919 14.404 67.7741 14.1187 67.7353 13.8102C67.7025 13.6562 67.7119 13.4962 67.7626 13.3472C67.8133 13.1981 67.9034 13.0656 68.0233 12.9635C68.1409 12.8608 68.283 12.79 68.4358 12.7579C68.5886 12.7259 68.7471 12.7335 68.8961 12.7803C69.1285 12.8335 69.3443 12.9428 69.5246 13.0988C69.7034 13.2534 69.8413 13.4498 69.9261 13.6705C69.9879 13.8075 70.0177 13.9567 70.0133 14.1069C70.0107 14.2599 69.9703 14.4099 69.8955 14.5433C69.8775 14.5703 69.8697 14.6028 69.8737 14.635C69.8772 14.6637 69.8912 14.6901 69.913 14.7092Z" fill="#FF007F"/>
<path d="M68.4637 17.7771C68.3824 17.7374 68.2919 17.7208 68.2018 17.7291C68.1124 17.7384 68.0275 17.7732 67.9574 17.8295C67.8943 17.8823 67.8474 17.9519 67.8221 18.0303C67.7982 18.1085 67.7982 18.1921 67.8221 18.2703C67.8456 18.3937 67.9048 18.5075 67.9923 18.5976C68.078 18.6881 68.1891 18.7505 68.3109 18.7765C68.3934 18.8015 68.4815 18.8015 68.564 18.7765C68.6475 18.7539 68.723 18.7086 68.7822 18.6456C68.8341 18.5839 68.8701 18.5105 68.887 18.4318C68.9002 18.3523 68.8911 18.2707 68.8608 18.1961C68.8331 18.0994 68.7822 18.011 68.7124 17.9386C68.6417 17.868 68.557 17.813 68.4637 17.7771Z" fill="#FF007F"/>
<path d="M0 68.2915V54.1519H1.34414L5.3591 63.5434V54.1519H6.98254V68.2915H5.74314L1.67581 58.6381V68.2915H0Z" fill="#FF007F"/>
<path d="M9.32593 68.2915V54.1519H11.2636V68.2915H9.32593Z" fill="#FF007F"/>
<path d="M16.8847 68.4486C16.1678 68.4735 15.4588 68.2918 14.8423 67.9249C14.3051 67.5685 13.8811 67.0657 13.6204 66.476C13.3273 65.7965 13.1631 65.0685 13.136 64.3289L14.8816 63.8576C14.9151 64.3459 14.9895 64.8306 15.1042 65.3065C15.2162 65.7325 15.4253 66.1269 15.7152 66.4586C15.8696 66.6078 16.0532 66.7236 16.2545 66.7987C16.4557 66.8738 16.6703 66.9066 16.8847 66.895C17.0969 66.9093 17.3096 66.8777 17.5084 66.8024C17.7072 66.7271 17.8875 66.6098 18.0369 66.4586C18.3256 66.1128 18.4695 65.6687 18.4384 65.2192C18.467 64.6729 18.3135 64.1326 18.0019 63.683C17.6803 63.2493 17.3131 62.8514 16.9066 62.496L14.5281 60.4012C14.0994 60.0393 13.749 59.5939 13.4982 59.092C13.2648 58.5221 13.1533 57.9096 13.1709 57.294C13.142 56.8539 13.2046 56.4127 13.3548 55.998C13.5051 55.5834 13.7396 55.2044 14.0437 54.885C14.3713 54.5864 14.7547 54.3556 15.1719 54.2058C15.5891 54.056 16.0318 53.9902 16.4745 54.0122C16.9728 54.0018 17.469 54.0786 17.9408 54.2391C18.3464 54.3634 18.7121 54.5922 19.0013 54.9025C19.3104 55.2324 19.5441 55.6255 19.6865 56.0546C19.8745 56.5716 19.9905 57.112 20.0312 57.6606L18.3598 58.097C18.3295 57.6664 18.2579 57.2396 18.146 56.8227C18.064 56.4573 17.8685 56.1273 17.5874 55.88C17.2787 55.6169 16.8791 55.4853 16.4745 55.5135C16.2654 55.5004 16.0558 55.5292 15.858 55.5981C15.6602 55.6671 15.4781 55.7748 15.3224 55.915C15.178 56.068 15.0673 56.2496 14.9974 56.448C14.9275 56.6464 14.8999 56.8573 14.9165 57.0671C14.9058 57.4332 14.9774 57.7971 15.126 58.1319C15.3142 58.4607 15.5561 58.7558 15.8417 59.0047L18.2376 61.0995C18.7893 61.585 19.2659 62.1497 19.6516 62.7753C20.0717 63.4626 20.2839 64.2568 20.2625 65.0621C20.2768 65.6948 20.1264 66.3204 19.8261 66.8775C19.541 67.3688 19.1216 67.7685 18.6173 68.0297C18.0832 68.3101 17.488 68.454 16.8847 68.4486Z" fill="#FF007F"/>
<path d="M21.8206 68.2915V54.1519H23.7931V60.2616H27.4066V54.1519H29.3792V68.2915H27.4066V61.6755H23.7757V68.2915H21.8206Z" fill="#FF007F"/>
<path d="M30.8191 68.2915L33.8216 54.1519H35.7243L38.7443 68.2915H36.8764L36.2218 64.7304H33.3415L32.6607 68.2915H30.8191ZM33.6121 63.3164H35.9687L34.7817 56.9449L33.6121 63.3164Z" fill="#FF007F"/>
<path d="M44.1689 68.2915V54.1519H46.1415V60.2616H49.7724V54.1519H51.745V68.2915H49.7724V61.6755H46.1415V68.2915H44.1689Z" fill="#6B93F6"/>
<path d="M53.9531 68.2915V54.1519H59.4344V55.6182H55.9432V60.2965H58.7885V61.693H55.9432V66.8775H59.4868V68.2915H53.9531Z" fill="#6B93F6"/>
<path d="M60.2942 68.2915L63.2967 54.1519H65.1994L68.2194 68.2915H66.3341L65.6882 64.7304H62.8428L62.162 68.2915H60.2942ZM63.0872 63.3164H65.4613L64.2742 56.9449L63.0872 63.3164Z" fill="#6B93F6"/>
<path d="M69.6553 68.2915V54.1519H71.6278V66.8775H75.2413V68.2915H69.6553Z" fill="#6B93F6"/>
<path d="M77.7548 68.2914V55.6355H75.3633V54.1692H82.0447V55.6355H79.723V68.2914H77.7548Z" fill="#6B93F6"/>
<path d="M83.4109 68.2915V54.1519H85.3835V60.2616H89.0275V54.1519H91V68.2915H89.0275V61.6755H85.3965V68.2915H83.4109Z" fill="#6B93F6"/>
</svg>
