<svg width="50" height="50" viewBox="0 0 50 50" fill="none" xmlns="http://www.w3.org/2000/svg">
<g clip-path="url(#clip0_20_191)">
<rect width="49.7368" height="49.7368" rx="24.8684" fill="#FF007F"/>
<path d="M33.0556 16.9696C33.7029 16.9696 34.2741 17.5407 34.2741 18.2261V32.8091C34.2741 33.4944 33.7029 34.0275 33.0556 34.0275H18.3965C17.7492 34.0275 17.2162 33.4944 17.2162 32.8091V18.2261C17.2162 17.5407 17.7492 16.9696 18.3965 16.9696H33.0556ZM22.3564 31.5907V23.4805H19.8434V31.5907H22.3564ZM21.0999 22.3383C21.8995 22.3383 22.5468 21.691 22.5468 20.8914C22.5468 20.0918 21.8995 19.4064 21.0999 19.4064C20.2622 19.4064 19.6149 20.0918 19.6149 20.8914C19.6149 21.691 20.2622 22.3383 21.0999 22.3383ZM31.8372 31.5907V27.1358C31.8372 24.9655 31.3422 23.2521 28.7912 23.2521C27.5727 23.2521 26.7351 23.9375 26.3924 24.5847H26.3543V23.4805H23.9556V31.5907H26.4686V27.5927C26.4686 26.5266 26.6589 25.4986 27.9916 25.4986C29.2862 25.4986 29.2862 26.717 29.2862 27.6308V31.5907H31.8372Z" fill="white"/>
</g>
<defs>
<clipPath id="clip0_20_191">
<rect width="50" height="50" fill="white"/>
</clipPath>
</defs>
</svg>
