<svg width="599" height="385" viewBox="0 0 599 385" fill="none" xmlns="http://www.w3.org/2000/svg">
<rect x="0.414246" y="0.414246" width="598.172" height="383.592" rx="24.4405" fill="white" stroke="#324575" stroke-width="0.828492"/>
<path d="M436.94 42.855V42.3778C438.146 41.4101 439.22 40.5219 440.161 39.7133C441.102 38.9047 441.904 38.1558 442.567 37.4665C443.23 36.7639 443.734 36.0879 444.078 35.4383C444.423 34.7888 444.595 34.126 444.595 33.4499C444.595 32.3895 444.277 31.5543 443.641 30.9446C443.005 30.3348 442.136 30.0299 441.036 30.0299C439.923 30.0299 439.028 30.3812 438.352 31.0838C437.676 31.7731 437.305 32.6943 437.238 33.8476L436.741 33.5891C436.794 32.7673 437 32.0581 437.358 31.4616C437.716 30.8518 438.206 30.3812 438.829 30.0498C439.465 29.7051 440.201 29.5328 441.036 29.5328C441.672 29.5328 442.242 29.6256 442.746 29.8112C443.25 29.9835 443.681 30.242 444.039 30.5867C444.396 30.9313 444.668 31.3422 444.854 31.8195C445.053 32.2967 445.152 32.8402 445.152 33.4499C445.152 34.3778 444.867 35.2792 444.297 36.1541C443.727 37.029 442.892 37.9636 441.792 38.9578C440.705 39.9387 439.373 41.0654 437.795 42.338V42.3579C437.875 42.3579 437.961 42.3579 438.054 42.3579C438.16 42.3579 438.259 42.3579 438.352 42.3579C438.458 42.3579 438.544 42.3579 438.61 42.3579H445.669V42.855H436.94ZM455.869 32.9131L450.977 44.8036C450.739 45.3869 450.487 45.8442 450.222 46.1756C449.957 46.5202 449.658 46.7655 449.327 46.9113C448.996 47.0571 448.625 47.13 448.214 47.13C447.842 47.13 447.511 47.0703 447.219 46.951C446.928 46.845 446.696 46.6859 446.523 46.4738L446.742 46.0165C446.914 46.2419 447.127 46.4009 447.378 46.4937C447.644 46.5865 447.922 46.6329 448.214 46.6329C448.691 46.6329 449.108 46.5003 449.466 46.2352C449.824 45.9701 450.162 45.4531 450.48 44.6843L451.216 42.8749L450.142 40.3496L447.001 32.9131H447.637L451.097 41.2444L451.494 42.2386L451.912 41.1847L455.272 32.9131H455.869ZM458.022 42.855V32.9131H458.519L458.559 35.319C458.797 34.5634 459.195 33.9404 459.752 33.4499C460.322 32.9595 461.004 32.7142 461.8 32.7142C462.118 32.7142 462.39 32.754 462.615 32.8335C462.84 32.8998 463.019 32.9992 463.152 33.1318L462.953 33.609C462.821 33.4897 462.668 33.3969 462.496 33.3306C462.323 33.2511 462.058 33.2113 461.7 33.2113C461.117 33.2113 460.587 33.3969 460.11 33.7681C459.646 34.126 459.275 34.6032 458.996 35.1997C458.718 35.7962 458.579 36.4458 458.579 37.1483V42.855H458.022ZM467.96 43.0538C466.94 43.0538 466.051 42.855 465.296 42.4573C464.553 42.0464 464.063 41.4432 463.824 40.6479L464.321 40.3496C464.52 41.0787 464.945 41.6288 465.594 42C466.257 42.3711 467.072 42.5567 468.04 42.5567C469.034 42.5567 469.816 42.3579 470.386 41.9602C470.956 41.5625 471.241 41.0257 471.241 40.3496C471.241 39.8857 471.095 39.4946 470.804 39.1765C470.512 38.8583 469.962 38.6131 469.153 38.4408L466.867 37.9437C465.939 37.7448 465.276 37.4333 464.878 37.0091C464.481 36.5717 464.282 36.0613 464.282 35.4781C464.282 34.9478 464.441 34.4773 464.759 34.0663C465.077 33.6554 465.515 33.3306 466.071 33.092C466.641 32.8402 467.284 32.7142 468 32.7142C469.007 32.7142 469.829 32.9131 470.466 33.3107C471.102 33.7084 471.526 34.3182 471.738 35.1401L471.261 35.4383C471.075 34.6695 470.698 34.1061 470.128 33.7482C469.571 33.3903 468.862 33.2113 468 33.2113C467.377 33.2113 466.827 33.3041 466.35 33.4897C465.886 33.6753 465.515 33.9338 465.236 34.2652C464.971 34.5966 464.838 34.9744 464.838 35.3985C464.838 35.8625 464.991 36.2734 465.296 36.6313C465.614 36.976 466.157 37.2345 466.926 37.4068L469.273 37.9238C470.214 38.1359 470.87 38.4408 471.241 38.8384C471.625 39.2229 471.818 39.7133 471.818 40.3099C471.818 40.8666 471.659 41.3571 471.34 41.7813C471.022 42.1922 470.572 42.5103 469.988 42.7357C469.418 42.9478 468.742 43.0538 467.96 43.0538ZM484.29 43.0538C483.402 43.0538 482.607 42.8484 481.904 42.4374C481.202 42.0265 480.645 41.4366 480.234 40.6678C479.823 39.8857 479.618 38.9578 479.618 37.884C479.618 36.797 479.816 35.8691 480.214 35.1003C480.625 34.3315 481.169 33.7416 481.845 33.3306C482.521 32.9197 483.283 32.7142 484.131 32.7142C485.019 32.7142 485.775 32.9131 486.398 33.3107C487.034 33.7084 487.518 34.2718 487.849 35.0009C488.194 35.7167 488.366 36.5717 488.366 37.5659C488.366 37.6189 488.366 37.6786 488.366 37.7448C488.366 37.7979 488.36 37.8443 488.347 37.884H479.956V37.3869H488.108L487.849 37.5062C487.836 36.2204 487.505 35.1865 486.855 34.4044C486.219 33.609 485.311 33.2113 484.131 33.2113C483.376 33.2113 482.7 33.3969 482.103 33.7681C481.507 34.1392 481.036 34.6761 480.691 35.3787C480.347 36.068 480.174 36.9031 480.174 37.884C480.174 38.865 480.347 39.7067 480.691 40.4093C481.049 41.0986 481.533 41.6288 482.143 42C482.766 42.3711 483.475 42.5567 484.27 42.5567C485.066 42.5567 485.775 42.3711 486.398 42C487.021 41.6288 487.492 41.1185 487.81 40.4689L488.267 40.7274C488.042 41.2046 487.73 41.6156 487.332 41.9602C486.935 42.3049 486.477 42.5766 485.961 42.7754C485.444 42.961 484.887 43.0538 484.29 43.0538ZM494.252 43.0538C493.231 43.0538 492.343 42.855 491.587 42.4573C490.845 42.0464 490.355 41.4432 490.116 40.6479L490.613 40.3496C490.812 41.0787 491.236 41.6288 491.886 42C492.549 42.3711 493.364 42.5567 494.331 42.5567C495.326 42.5567 496.108 42.3579 496.678 41.9602C497.248 41.5625 497.533 41.0257 497.533 40.3496C497.533 39.8857 497.387 39.4946 497.095 39.1765C496.804 38.8583 496.254 38.6131 495.445 38.4408L493.158 37.9437C492.23 37.7448 491.568 37.4333 491.17 37.0091C490.772 36.5717 490.573 36.0613 490.573 35.4781C490.573 34.9478 490.732 34.4773 491.051 34.0663C491.369 33.6554 491.806 33.3306 492.363 33.092C492.933 32.8402 493.576 32.7142 494.292 32.7142C495.299 32.7142 496.121 32.9131 496.757 33.3107C497.394 33.7084 497.818 34.3182 498.03 35.1401L497.553 35.4383C497.367 34.6695 496.989 34.1061 496.419 33.7482C495.862 33.3903 495.153 33.2113 494.292 33.2113C493.669 33.2113 493.119 33.3041 492.641 33.4897C492.177 33.6753 491.806 33.9338 491.528 34.2652C491.263 34.5966 491.13 34.9744 491.13 35.3985C491.13 35.8625 491.283 36.2734 491.587 36.6313C491.906 36.976 492.449 37.2345 493.218 37.4068L495.564 37.9238C496.505 38.1359 497.162 38.4408 497.533 38.8384C497.917 39.2229 498.109 39.7133 498.109 40.3099C498.109 40.8666 497.95 41.3571 497.632 41.7813C497.314 42.1922 496.863 42.5103 496.28 42.7357C495.71 42.9478 495.034 43.0538 494.252 43.0538ZM501.913 30.2089V40.3099C501.913 41.0389 502.072 41.5957 502.39 41.9801C502.708 42.3645 503.199 42.5567 503.861 42.5567C504.219 42.5567 504.544 42.4971 504.836 42.3778C505.127 42.2452 505.386 42.0596 505.611 41.821L505.85 42.2783C505.638 42.5037 505.353 42.6893 504.995 42.8351C504.637 42.9809 504.246 43.0538 503.822 43.0538C503.305 43.0538 502.854 42.9544 502.47 42.7556C502.098 42.5567 501.82 42.2585 501.634 41.8608C501.449 41.4499 501.356 40.9461 501.356 40.3496V30.3679L501.913 30.2089ZM505.711 32.9131V33.3903H499.368V32.9131H505.711ZM507.932 30.9645C507.759 30.9645 507.62 30.9114 507.514 30.8054C507.408 30.6993 507.355 30.5602 507.355 30.3878C507.355 30.2155 507.408 30.0763 507.514 29.9703C507.62 29.8642 507.766 29.8112 507.952 29.8112C508.124 29.8112 508.263 29.8642 508.369 29.9703C508.475 30.0763 508.528 30.2155 508.528 30.3878C508.528 30.5602 508.475 30.6993 508.369 30.8054C508.263 30.9114 508.117 30.9645 507.932 30.9645ZM508.23 32.9131V42.855H507.673V32.9131H508.23ZM511.673 42.855V32.9131H512.19L512.21 35.3588C512.449 34.5767 512.926 33.9404 513.642 33.4499C514.358 32.9595 515.199 32.7142 516.167 32.7142C517.135 32.7142 517.937 32.9528 518.573 33.4301C519.209 33.9073 519.607 34.5899 519.766 35.4781C519.912 34.9346 520.177 34.4574 520.561 34.0464C520.946 33.6223 521.416 33.2909 521.973 33.0523C522.543 32.8004 523.159 32.6745 523.822 32.6745C524.565 32.6745 525.207 32.8203 525.751 33.1119C526.308 33.3903 526.739 33.8012 527.043 34.3447C527.362 34.8749 527.521 35.5311 527.521 36.3132V42.8152H526.964V36.3729C526.964 35.3389 526.672 34.5502 526.089 34.0067C525.506 33.4499 524.724 33.1716 523.743 33.1716C523.014 33.1716 522.357 33.3439 521.774 33.6885C521.191 34.0199 520.727 34.4706 520.382 35.0406C520.051 35.6106 519.885 36.2403 519.885 36.9296V42.855H519.309V36.4126C519.309 35.3787 519.017 34.5899 518.434 34.0464C517.85 33.4897 517.068 33.2113 516.087 33.2113C515.385 33.2113 514.735 33.377 514.139 33.7084C513.556 34.0398 513.092 34.4971 512.747 35.0804C512.402 35.6504 512.23 36.2867 512.23 36.9893V42.855H511.673ZM537.141 36.2138C537.141 35.2859 536.883 34.5568 536.366 34.0266C535.849 33.4831 535.107 33.2113 534.139 33.2113C533.33 33.2113 532.628 33.3903 532.031 33.7482C531.448 34.0928 531.01 34.6628 530.719 35.4582L530.281 35.1599C530.573 34.3513 531.05 33.7416 531.713 33.3306C532.389 32.9197 533.204 32.7142 534.159 32.7142C534.888 32.7142 535.517 32.8468 536.048 33.1119C536.578 33.377 536.982 33.7681 537.261 34.2851C537.552 34.802 537.698 35.4251 537.698 36.1541V41.2245C537.698 42.0994 538.063 42.5368 538.792 42.5368C539.07 42.5368 539.302 42.4838 539.488 42.3778L539.448 42.8351C539.249 42.9544 538.99 43.0141 538.672 43.0141C538.434 43.0141 538.195 42.961 537.957 42.855C537.718 42.7489 537.519 42.5634 537.36 42.2982C537.201 42.0331 537.121 41.6487 537.121 41.145V40.3695L537.32 40.29C537.214 40.913 536.956 41.43 536.545 41.8409C536.134 42.2518 535.643 42.5567 535.073 42.7556C534.503 42.9544 533.927 43.0538 533.343 43.0538C532.694 43.0538 532.131 42.961 531.653 42.7754C531.176 42.5766 530.805 42.2916 530.54 41.9204C530.275 41.5493 530.142 41.0986 530.142 40.5683C530.142 39.826 530.387 39.2428 530.878 38.8186C531.382 38.3811 532.091 38.0762 533.005 37.9039L537.241 37.0688V37.546L533.324 38.3215C532.449 38.4805 531.793 38.7457 531.355 39.1168C530.931 39.4747 530.719 39.9453 530.719 40.5286C530.719 41.1781 530.951 41.6818 531.415 42.0397C531.879 42.3844 532.548 42.5567 533.423 42.5567C533.821 42.5567 534.232 42.5037 534.656 42.3977C535.08 42.2783 535.478 42.0994 535.849 41.8608C536.233 41.6089 536.545 41.2908 536.783 40.9064C537.022 40.5087 537.141 40.0381 537.141 39.4946V36.2138ZM542.205 30.2089V40.3099C542.205 41.0389 542.364 41.5957 542.682 41.9801C543 42.3645 543.491 42.5567 544.153 42.5567C544.511 42.5567 544.836 42.4971 545.128 42.3778C545.419 42.2452 545.678 42.0596 545.903 41.821L546.142 42.2783C545.93 42.5037 545.645 42.6893 545.287 42.8351C544.929 42.9809 544.538 43.0538 544.114 43.0538C543.597 43.0538 543.146 42.9544 542.761 42.7556C542.39 42.5567 542.112 42.2585 541.926 41.8608C541.741 41.4499 541.648 40.9461 541.648 40.3496V30.3679L542.205 30.2089ZM546.002 32.9131V33.3903H539.66V32.9131H546.002ZM551.942 43.0538C551.054 43.0538 550.258 42.8484 549.556 42.4374C548.853 42.0265 548.296 41.4366 547.886 40.6678C547.475 39.8857 547.269 38.9578 547.269 37.884C547.269 36.797 547.468 35.8691 547.866 35.1003C548.277 34.3315 548.82 33.7416 549.496 33.3306C550.172 32.9197 550.934 32.7142 551.783 32.7142C552.671 32.7142 553.427 32.9131 554.05 33.3107C554.686 33.7084 555.17 34.2718 555.501 35.0009C555.846 35.7167 556.018 36.5717 556.018 37.5659C556.018 37.6189 556.018 37.6786 556.018 37.7448C556.018 37.7979 556.011 37.8443 555.998 37.884H547.607V37.3869H555.76L555.501 37.5062C555.488 36.2204 555.156 35.1865 554.507 34.4044C553.871 33.609 552.963 33.2113 551.783 33.2113C551.027 33.2113 550.351 33.3969 549.755 33.7681C549.158 34.1392 548.688 34.6761 548.343 35.3787C547.998 36.068 547.826 36.9031 547.826 37.884C547.826 38.865 547.998 39.7067 548.343 40.4093C548.701 41.0986 549.185 41.6288 549.794 42C550.417 42.3711 551.127 42.5567 551.922 42.5567C552.717 42.5567 553.427 42.3711 554.05 42C554.673 41.6288 555.143 41.1185 555.461 40.4689L555.919 40.7274C555.693 41.2046 555.382 41.6156 554.984 41.9602C554.586 42.3049 554.129 42.5766 553.612 42.7754C553.095 42.961 552.538 43.0538 551.942 43.0538Z" fill="#7B8396"/>
<path d="M42.1919 40.9346C41.919 41.8536 41.4882 42.6219 40.8994 43.2394C40.3107 43.8569 39.6142 44.3165 38.81 44.618C38.0058 44.9196 37.1226 45.0704 36.1605 45.0704C34.7531 45.0704 33.5325 44.776 32.4985 44.1872C31.4789 43.5984 30.6891 42.7583 30.129 41.6669C29.5833 40.5755 29.3105 39.2687 29.3105 37.7465C29.3105 36.2243 29.5833 34.9175 30.129 33.8261C30.6891 32.7347 31.4789 31.8946 32.4985 31.3058C33.5325 30.717 34.7388 30.4226 36.1174 30.4226C37.0939 30.4226 37.9771 30.5591 38.7669 30.8319C39.5567 31.0904 40.2245 31.4925 40.7702 32.0382C41.3303 32.5839 41.7395 33.2732 41.998 34.1061L39.3054 35.2478C39.0613 34.3862 38.6879 33.7758 38.1853 33.4168C37.6827 33.0434 37.0365 32.8568 36.2466 32.8568C35.4712 32.8568 34.789 33.0434 34.2002 33.4168C33.6258 33.7902 33.1807 34.3431 32.8647 35.0755C32.5488 35.7935 32.3908 36.6838 32.3908 37.7465C32.3908 38.7948 32.5344 39.6852 32.8216 40.4176C33.1232 41.15 33.5612 41.7028 34.1356 42.0762C34.71 42.4496 35.4137 42.6363 36.2466 42.6363C37.0221 42.6363 37.6899 42.4281 38.2499 42.0116C38.8243 41.5951 39.2264 40.9633 39.4562 40.116L42.1919 40.9346ZM49.3352 33.8692C50.4266 33.8692 51.3816 34.0918 52.2001 34.5369C53.033 34.9821 53.6792 35.6212 54.1388 36.4541C54.6127 37.287 54.8496 38.2922 54.8496 39.4698C54.8496 40.633 54.6127 41.6382 54.1388 42.4855C53.6792 43.3184 53.033 43.9574 52.2001 44.4026C51.3816 44.8478 50.4266 45.0704 49.3352 45.0704C48.2581 45.0704 47.3032 44.8478 46.4703 44.4026C45.6373 43.9574 44.9839 43.3184 44.51 42.4855C44.0505 41.6382 43.8207 40.633 43.8207 39.4698C43.8207 38.2922 44.0505 37.287 44.51 36.4541C44.9839 35.6212 45.6373 34.9821 46.4703 34.5369C47.3032 34.0918 48.2581 33.8692 49.3352 33.8692ZM49.3352 36.0663C48.7895 36.0663 48.3228 36.1956 47.935 36.4541C47.5617 36.6982 47.2744 37.0716 47.0734 37.5742C46.8724 38.0768 46.7718 38.7087 46.7718 39.4698C46.7718 40.2309 46.8724 40.8628 47.0734 41.3654C47.2744 41.868 47.5617 42.2485 47.935 42.507C48.3228 42.7512 48.7895 42.8732 49.3352 42.8732C49.8665 42.8732 50.3189 42.7512 50.6923 42.507C51.08 42.2485 51.3744 41.868 51.5754 41.3654C51.7765 40.8628 51.877 40.2309 51.877 39.4698C51.877 38.7087 51.7765 38.0768 51.5754 37.5742C51.3744 37.0716 51.08 36.6982 50.6923 36.4541C50.3189 36.1956 49.8665 36.0663 49.3352 36.0663ZM61.6271 45.0704C60.5357 45.0704 59.5376 44.8765 58.6329 44.4888C57.7425 44.1011 57.0173 43.5554 56.4573 42.8517L58.159 41.1284C58.5037 41.6454 58.9632 42.069 59.5376 42.3993C60.112 42.7296 60.7942 42.8948 61.584 42.8948C62.1441 42.8948 62.5892 42.8158 62.9195 42.6578C63.2642 42.4855 63.4365 42.2198 63.4365 41.8608C63.4365 41.631 63.3575 41.4372 63.1996 41.2792C63.0416 41.1069 62.7257 40.9705 62.2518 40.8699L60.3562 40.4822C59.1068 40.2237 58.2164 39.836 57.6851 39.319C57.1681 38.7877 56.9096 38.1055 56.9096 37.2726C56.9096 36.6838 57.082 36.131 57.4266 35.614C57.7856 35.097 58.317 34.6805 59.0206 34.3646C59.7243 34.0343 60.6003 33.8692 61.6486 33.8692C62.7257 33.8692 63.6591 34.0415 64.4489 34.3862C65.2531 34.7164 65.885 35.2119 66.3445 35.8725L64.5782 37.5957C64.2622 37.0931 63.8458 36.7126 63.3288 36.4541C62.8262 36.1812 62.2948 36.0448 61.7348 36.0448C61.3327 36.0448 60.988 36.0879 60.7008 36.174C60.4136 36.2602 60.1982 36.3823 60.0546 36.5402C59.911 36.6838 59.8392 36.8705 59.8392 37.1003C59.8392 37.3301 59.9397 37.5311 60.1408 37.7034C60.3418 37.8614 60.708 37.9978 61.2393 38.1127L63.4365 38.5651C64.4992 38.7805 65.2603 39.1467 65.7198 39.6636C66.1794 40.1663 66.4091 40.7766 66.4091 41.4946C66.4091 42.1839 66.2224 42.8014 65.8491 43.3471C65.4901 43.8785 64.9515 44.3021 64.2335 44.618C63.5298 44.9196 62.661 45.0704 61.6271 45.0704ZM72.5752 30.7888V41.3438C72.5752 41.8608 72.7044 42.2414 72.9629 42.4855C73.2358 42.7153 73.602 42.8301 74.0615 42.8301C74.4205 42.8301 74.7364 42.7799 75.0093 42.6794C75.2821 42.5645 75.5263 42.4137 75.7417 42.227L76.2156 44.1872C75.8709 44.4601 75.4401 44.6755 74.9231 44.8334C74.4062 44.9914 73.8605 45.0704 73.286 45.0704C72.568 45.0704 71.929 44.9627 71.3689 44.7473C70.8232 44.5319 70.3924 44.1872 70.0765 43.7133C69.7749 43.2394 69.6241 42.6076 69.6241 41.8177V31.6074L72.5752 30.7888ZM76.0217 34.0846V36.2817H67.6423V34.0846H76.0217ZM84.6025 49.3785V34.0846H87.252L87.4459 37.5096L87.0797 37.1218C87.209 36.49 87.4459 35.9299 87.7906 35.4416C88.1496 34.9534 88.6019 34.5728 89.1476 34.3C89.6933 34.0128 90.3037 33.8692 90.9786 33.8692C91.8546 33.8692 92.6372 34.0918 93.3266 34.5369C94.0159 34.9821 94.5544 35.6212 94.9421 36.4541C95.3442 37.2726 95.5453 38.2707 95.5453 39.4482C95.5453 40.6258 95.3442 41.6382 94.9421 42.4855C94.54 43.3184 93.9871 43.9574 93.2835 44.4026C92.5942 44.8478 91.8043 45.0704 90.914 45.0704C89.9662 45.0704 89.1764 44.8047 88.5445 44.2734C87.927 43.742 87.5034 43.0743 87.2736 42.2701L87.5536 41.8177V49.3785H84.6025ZM90.0524 42.8086C90.8422 42.8086 91.4597 42.5286 91.9049 41.9685C92.3644 41.3941 92.5942 40.5612 92.5942 39.4698C92.5942 38.3784 92.3716 37.5526 91.9264 36.9926C91.4956 36.4182 90.8853 36.131 90.0954 36.131C89.5928 36.131 89.1476 36.2674 88.7599 36.5402C88.3865 36.7987 88.0921 37.1793 87.8767 37.6819C87.6613 38.1702 87.5536 38.7661 87.5536 39.4698C87.5536 40.1591 87.6541 40.755 87.8552 41.2577C88.0562 41.7603 88.3434 42.148 88.7168 42.4209C89.1046 42.6794 89.5497 42.8086 90.0524 42.8086ZM98.1076 44.855V34.0846H100.671L100.865 36.1956C101.152 35.4488 101.568 34.8744 102.114 34.4723C102.674 34.0702 103.371 33.8692 104.204 33.8692C104.448 33.8692 104.67 33.8907 104.871 33.9338C105.072 33.9769 105.238 34.0343 105.367 34.1061L105.022 36.5833C104.879 36.5259 104.699 36.4828 104.484 36.4541C104.283 36.4253 104.017 36.411 103.687 36.411C103.256 36.411 102.839 36.5187 102.437 36.7341C102.035 36.9351 101.705 37.2511 101.446 37.6819C101.188 38.0983 101.059 38.6297 101.059 39.2759V44.855H98.1076ZM111.982 45.0704C110.848 45.0704 109.857 44.8478 109.01 44.4026C108.177 43.9574 107.53 43.3184 107.071 42.4855C106.611 41.6526 106.382 40.6473 106.382 39.4698C106.382 38.2922 106.611 37.287 107.071 36.4541C107.53 35.6212 108.17 34.9821 108.988 34.5369C109.821 34.0918 110.769 33.8692 111.831 33.8692C112.923 33.8692 113.849 34.0918 114.61 34.5369C115.371 34.9678 115.953 35.5637 116.355 36.3248C116.757 37.0716 116.958 37.926 116.958 38.8882C116.958 39.1754 116.951 39.4482 116.937 39.7067C116.922 39.9652 116.901 40.195 116.872 40.396H108.277V38.3497H115.58L114.158 38.8666C114.158 37.9619 113.95 37.2654 113.533 36.7772C113.131 36.2889 112.557 36.0448 111.81 36.0448C111.264 36.0448 110.79 36.174 110.388 36.4325C110 36.691 109.706 37.0788 109.505 37.5957C109.304 38.0983 109.203 38.7374 109.203 39.5129C109.203 40.274 109.311 40.9058 109.527 41.4085C109.756 41.8967 110.072 42.2629 110.474 42.507C110.891 42.7512 111.386 42.8732 111.961 42.8732C112.593 42.8732 113.102 42.7512 113.49 42.507C113.878 42.2629 114.179 41.9254 114.395 41.4946L116.743 42.3993C116.513 42.9594 116.161 43.4405 115.687 43.8426C115.228 44.2447 114.675 44.5534 114.029 44.7688C113.397 44.9699 112.715 45.0704 111.982 45.0704ZM123.53 45.0704C122.64 45.0704 121.843 44.8478 121.139 44.4026C120.45 43.9574 119.904 43.3184 119.502 42.4855C119.114 41.6526 118.921 40.6545 118.921 39.4913C118.921 38.2994 119.129 37.287 119.545 36.4541C119.962 35.6068 120.522 34.9678 121.225 34.5369C121.943 34.0918 122.748 33.8692 123.638 33.8692C124.586 33.8692 125.368 34.142 125.986 34.6877C126.603 35.2334 127.006 35.9371 127.192 36.7987L126.912 37.1434V29.3671H129.863V44.855H127.214L127.02 41.5808L127.386 41.7531C127.286 42.4281 127.056 43.0168 126.697 43.5195C126.338 44.0077 125.885 44.3883 125.34 44.6611C124.794 44.934 124.191 45.0704 123.53 45.0704ZM124.392 42.8086C124.909 42.8086 125.354 42.6794 125.727 42.4209C126.101 42.148 126.388 41.7531 126.589 41.2361C126.804 40.7191 126.912 40.1016 126.912 39.3836C126.912 38.6943 126.812 38.1127 126.611 37.6388C126.41 37.1506 126.122 36.7772 125.749 36.5187C125.376 36.2602 124.938 36.131 124.435 36.131C123.631 36.131 122.999 36.4182 122.539 36.9926C122.094 37.5526 121.872 38.3784 121.872 39.4698C121.872 40.5612 122.094 41.3941 122.539 41.9685C122.985 42.5286 123.602 42.8086 124.392 42.8086ZM134.45 32.5336C133.833 32.5336 133.373 32.4044 133.072 32.1459C132.77 31.8731 132.62 31.4781 132.62 30.9612C132.62 30.4298 132.77 30.0349 133.072 29.7764C133.373 29.5036 133.833 29.3671 134.45 29.3671C135.068 29.3671 135.528 29.5036 135.829 29.7764C136.131 30.0349 136.281 30.4298 136.281 30.9612C136.281 31.4781 136.131 31.8731 135.829 32.1459C135.528 32.4044 135.068 32.5336 134.45 32.5336ZM135.915 34.0846V44.855H132.964V34.0846H135.915ZM143.933 33.8692C144.895 33.8692 145.707 34.0128 146.367 34.3C147.042 34.5728 147.581 34.9534 147.983 35.4416C148.399 35.9155 148.694 36.4469 148.866 37.0357L146.109 38.0265C145.965 37.3803 145.721 36.8921 145.377 36.5618C145.032 36.2315 144.565 36.0663 143.976 36.0663C143.431 36.0663 142.964 36.1956 142.576 36.4541C142.188 36.6982 141.894 37.0788 141.693 37.5957C141.492 38.0983 141.391 38.7302 141.391 39.4913C141.391 40.2524 141.492 40.8843 141.693 41.3869C141.908 41.8895 142.21 42.2629 142.598 42.507C143 42.7512 143.467 42.8732 143.998 42.8732C144.429 42.8732 144.795 42.8014 145.097 42.6578C145.398 42.4999 145.642 42.2773 145.829 41.9901C146.03 41.7028 146.166 41.3582 146.238 40.9561L148.909 41.8177C148.751 42.464 148.457 43.0312 148.026 43.5195C147.595 44.0077 147.042 44.3883 146.367 44.6611C145.692 44.934 144.91 45.0704 144.019 45.0704C142.914 45.0704 141.937 44.8478 141.09 44.4026C140.243 43.9574 139.589 43.3184 139.13 42.4855C138.67 41.6526 138.44 40.6473 138.44 39.4698C138.44 38.2922 138.67 37.287 139.13 36.4541C139.589 35.6212 140.235 34.9821 141.068 34.5369C141.901 34.0918 142.856 33.8692 143.933 33.8692ZM155.015 30.7888V41.3438C155.015 41.8608 155.144 42.2414 155.403 42.4855C155.676 42.7153 156.042 42.8301 156.501 42.8301C156.86 42.8301 157.176 42.7799 157.449 42.6794C157.722 42.5645 157.966 42.4137 158.182 42.227L158.655 44.1872C158.311 44.4601 157.88 44.6755 157.363 44.8334C156.846 44.9914 156.3 45.0704 155.726 45.0704C155.008 45.0704 154.369 44.9627 153.809 44.7473C153.263 44.5319 152.832 44.1872 152.516 43.7133C152.215 43.2394 152.064 42.6076 152.064 41.8177V31.6074L155.015 30.7888ZM158.462 34.0846V36.2817H150.082V34.0846H158.462ZM161.944 32.5336C161.327 32.5336 160.867 32.4044 160.566 32.1459C160.264 31.8731 160.113 31.4781 160.113 30.9612C160.113 30.4298 160.264 30.0349 160.566 29.7764C160.867 29.5036 161.327 29.3671 161.944 29.3671C162.562 29.3671 163.021 29.5036 163.323 29.7764C163.625 30.0349 163.775 30.4298 163.775 30.9612C163.775 31.4781 163.625 31.8731 163.323 32.1459C163.021 32.4044 162.562 32.5336 161.944 32.5336ZM163.409 34.0846V44.855H160.458V34.0846H163.409ZM171.449 33.8692C172.54 33.8692 173.495 34.0918 174.314 34.5369C175.147 34.9821 175.793 35.6212 176.252 36.4541C176.726 37.287 176.963 38.2922 176.963 39.4698C176.963 40.633 176.726 41.6382 176.252 42.4855C175.793 43.3184 175.147 43.9574 174.314 44.4026C173.495 44.8478 172.54 45.0704 171.449 45.0704C170.372 45.0704 169.417 44.8478 168.584 44.4026C167.751 43.9574 167.098 43.3184 166.624 42.4855C166.164 41.6382 165.934 40.633 165.934 39.4698C165.934 38.2922 166.164 37.287 166.624 36.4541C167.098 35.6212 167.751 34.9821 168.584 34.5369C169.417 34.0918 170.372 33.8692 171.449 33.8692ZM171.449 36.0663C170.903 36.0663 170.436 36.1956 170.049 36.4541C169.675 36.6982 169.388 37.0716 169.187 37.5742C168.986 38.0768 168.885 38.7087 168.885 39.4698C168.885 40.2309 168.986 40.8628 169.187 41.3654C169.388 41.868 169.675 42.2485 170.049 42.507C170.436 42.7512 170.903 42.8732 171.449 42.8732C171.98 42.8732 172.433 42.7512 172.806 42.507C173.194 42.2485 173.488 41.868 173.689 41.3654C173.89 40.8628 173.991 40.2309 173.991 39.4698C173.991 38.7087 173.89 38.0768 173.689 37.5742C173.488 37.0716 173.194 36.6982 172.806 36.4541C172.433 36.1956 171.98 36.0663 171.449 36.0663ZM179.433 44.855V34.0846H182.082L182.254 37.3157L181.888 36.971C182.061 36.2674 182.333 35.6858 182.707 35.2262C183.08 34.7667 183.532 34.4292 184.064 34.2138C184.61 33.9841 185.205 33.8692 185.852 33.8692C186.598 33.8692 187.259 34.0128 187.833 34.3C188.422 34.5872 188.882 35.0252 189.212 35.614C189.557 36.1884 189.729 36.9136 189.729 37.7896V44.855H186.778V38.6297C186.778 37.7106 186.598 37.0788 186.239 36.7341C185.88 36.3751 185.414 36.1956 184.839 36.1956C184.437 36.1956 184.042 36.2961 183.655 36.4971C183.281 36.6838 182.972 36.9926 182.728 37.4234C182.499 37.8542 182.384 38.4286 182.384 39.1467V44.855H179.433ZM203.905 29.1517C204.407 29.1517 204.86 29.2092 205.262 29.3241C205.678 29.4246 205.987 29.5538 206.188 29.7118L205.779 31.672C205.621 31.5715 205.441 31.4925 205.24 31.4351C205.039 31.3776 204.802 31.3489 204.529 31.3489C203.969 31.3489 203.524 31.4781 203.194 31.7366C202.864 31.9808 202.698 32.4044 202.698 33.0075V34.4939L202.828 35.0755V44.855H199.877V32.7921C199.877 32.189 199.977 31.6576 200.178 31.1981C200.379 30.7386 200.659 30.358 201.018 30.0564C201.377 29.7549 201.801 29.5323 202.289 29.3887C202.792 29.2307 203.33 29.1517 203.905 29.1517ZM206.102 34.0846V36.2817H198.003V34.0846H206.102ZM212.595 33.8692C213.687 33.8692 214.641 34.0918 215.46 34.5369C216.293 34.9821 216.939 35.6212 217.399 36.4541C217.873 37.287 218.11 38.2922 218.11 39.4698C218.11 40.633 217.873 41.6382 217.399 42.4855C216.939 43.3184 216.293 43.9574 215.46 44.4026C214.641 44.8478 213.687 45.0704 212.595 45.0704C211.518 45.0704 210.563 44.8478 209.73 44.4026C208.897 43.9574 208.244 43.3184 207.77 42.4855C207.31 41.6382 207.081 40.633 207.081 39.4698C207.081 38.2922 207.31 37.287 207.77 36.4541C208.244 35.6212 208.897 34.9821 209.73 34.5369C210.563 34.0918 211.518 33.8692 212.595 33.8692ZM212.595 36.0663C212.049 36.0663 211.583 36.1956 211.195 36.4541C210.822 36.6982 210.534 37.0716 210.333 37.5742C210.132 38.0768 210.032 38.7087 210.032 39.4698C210.032 40.2309 210.132 40.8628 210.333 41.3654C210.534 41.868 210.822 42.2485 211.195 42.507C211.583 42.7512 212.049 42.8732 212.595 42.8732C213.126 42.8732 213.579 42.7512 213.952 42.507C214.34 42.2485 214.634 41.868 214.835 41.3654C215.036 40.8628 215.137 40.2309 215.137 39.4698C215.137 38.7087 215.036 38.0768 214.835 37.5742C214.634 37.0716 214.34 36.6982 213.952 36.4541C213.579 36.1956 213.126 36.0663 212.595 36.0663ZM220.579 44.855V34.0846H223.142L223.336 36.1956C223.623 35.4488 224.04 34.8744 224.585 34.4723C225.145 34.0702 225.842 33.8692 226.675 33.8692C226.919 33.8692 227.142 33.8907 227.343 33.9338C227.544 33.9769 227.709 34.0343 227.838 34.1061L227.493 36.5833C227.35 36.5259 227.17 36.4828 226.955 36.4541C226.754 36.4253 226.488 36.411 226.158 36.411C225.727 36.411 225.311 36.5187 224.909 36.7341C224.506 36.9351 224.176 37.2511 223.918 37.6819C223.659 38.0983 223.53 38.6297 223.53 39.2759V44.855H220.579ZM239.411 30.7888V41.3438C239.411 41.8608 239.54 42.2414 239.799 42.4855C240.072 42.7153 240.438 42.8301 240.898 42.8301C241.257 42.8301 241.572 42.7799 241.845 42.6794C242.118 42.5645 242.362 42.4137 242.578 42.227L243.052 44.1872C242.707 44.4601 242.276 44.6755 241.759 44.8334C241.242 44.9914 240.696 45.0704 240.122 45.0704C239.404 45.0704 238.765 44.9627 238.205 44.7473C237.659 44.5319 237.228 44.1872 236.912 43.7133C236.611 43.2394 236.46 42.6076 236.46 41.8177V31.6074L239.411 30.7888ZM242.858 34.0846V36.2817H234.478V34.0846H242.858ZM244.854 44.855V34.0846H247.418L247.612 36.1956C247.899 35.4488 248.315 34.8744 248.861 34.4723C249.421 34.0702 250.117 33.8692 250.95 33.8692C251.194 33.8692 251.417 33.8907 251.618 33.9338C251.819 33.9769 251.984 34.0343 252.114 34.1061L251.769 36.5833C251.625 36.5259 251.446 36.4828 251.23 36.4541C251.029 36.4253 250.764 36.411 250.433 36.411C250.003 36.411 249.586 36.5187 249.184 36.7341C248.782 36.9351 248.452 37.2511 248.193 37.6819C247.935 38.0983 247.805 38.6297 247.805 39.2759V44.855H244.854ZM258.729 45.0704C257.594 45.0704 256.604 44.8478 255.756 44.4026C254.923 43.9574 254.277 43.3184 253.818 42.4855C253.358 41.6526 253.128 40.6473 253.128 39.4698C253.128 38.2922 253.358 37.287 253.818 36.4541C254.277 35.6212 254.916 34.9821 255.735 34.5369C256.568 34.0918 257.515 33.8692 258.578 33.8692C259.67 33.8692 260.596 34.0918 261.357 34.5369C262.118 34.9678 262.7 35.5637 263.102 36.3248C263.504 37.0716 263.705 37.926 263.705 38.8882C263.705 39.1754 263.698 39.4482 263.683 39.7067C263.669 39.9652 263.647 40.195 263.619 40.396H255.024V38.3497H262.326L260.905 38.8666C260.905 37.9619 260.696 37.2654 260.28 36.7772C259.878 36.2889 259.303 36.0448 258.557 36.0448C258.011 36.0448 257.537 36.174 257.135 36.4325C256.747 36.691 256.453 37.0788 256.252 37.5957C256.051 38.0983 255.95 38.7374 255.95 39.5129C255.95 40.274 256.058 40.9058 256.273 41.4085C256.503 41.8967 256.819 42.2629 257.221 42.507C257.638 42.7512 258.133 42.8732 258.707 42.8732C259.339 42.8732 259.849 42.7512 260.237 42.507C260.625 42.2629 260.926 41.9254 261.142 41.4946L263.489 42.3993C263.26 42.9594 262.908 43.4405 262.434 43.8426C261.974 44.2447 261.422 44.5534 260.775 44.7688C260.143 44.9699 259.461 45.0704 258.729 45.0704ZM272.345 37.9835C272.345 37.366 272.165 36.8849 271.806 36.5402C271.462 36.1956 271.002 36.0233 270.428 36.0233C269.896 36.0233 269.43 36.1597 269.028 36.4325C268.626 36.7054 268.331 37.1577 268.144 37.7896L265.624 37.0141C265.868 36.0663 266.4 35.3052 267.218 34.7308C268.051 34.1564 269.164 33.8692 270.557 33.8692C271.505 33.8692 272.331 34.02 273.034 34.3215C273.738 34.6087 274.284 35.0467 274.671 35.6355C275.073 36.2243 275.274 36.9639 275.274 37.8542V42.227C275.274 42.7727 275.533 43.0456 276.05 43.0456C276.294 43.0456 276.524 43.0097 276.739 42.9378L276.567 44.7688C276.194 44.9555 275.727 45.0488 275.167 45.0488C274.664 45.0488 274.212 44.9627 273.81 44.7904C273.408 44.618 273.092 44.3595 272.862 44.0149C272.632 43.6559 272.517 43.2107 272.517 42.6794V42.5932L273.034 42.507C272.948 43.0527 272.711 43.5195 272.323 43.9072C271.936 44.2806 271.462 44.5678 270.902 44.7688C270.356 44.9699 269.789 45.0704 269.2 45.0704C268.468 45.0704 267.836 44.9627 267.304 44.7473C266.773 44.5175 266.364 44.1872 266.077 43.7564C265.789 43.3256 265.646 42.7942 265.646 42.1624C265.646 41.3582 265.904 40.7048 266.421 40.2022C266.938 39.6852 267.678 39.3334 268.64 39.1467L272.69 38.3281L272.668 40.1591L270.083 40.6761C269.595 40.7766 269.222 40.913 268.963 41.0853C268.719 41.2433 268.597 41.509 268.597 41.8823C268.597 42.2414 268.726 42.5142 268.985 42.7009C269.257 42.8876 269.581 42.9809 269.954 42.9809C270.255 42.9809 270.55 42.945 270.837 42.8732C271.124 42.8014 271.383 42.6865 271.613 42.5286C271.842 42.3706 272.022 42.1552 272.151 41.8823C272.28 41.6095 272.345 41.2792 272.345 40.8915V37.9835ZM281.967 30.7888V41.3438C281.967 41.8608 282.096 42.2414 282.355 42.4855C282.628 42.7153 282.994 42.8301 283.453 42.8301C283.812 42.8301 284.128 42.7799 284.401 42.6794C284.674 42.5645 284.918 42.4137 285.133 42.227L285.607 44.1872C285.263 44.4601 284.832 44.6755 284.315 44.8334C283.798 44.9914 283.252 45.0704 282.678 45.0704C281.96 45.0704 281.321 44.9627 280.761 44.7473C280.215 44.5319 279.784 44.1872 279.468 43.7133C279.167 43.2394 279.016 42.6076 279.016 41.8177V31.6074L281.967 30.7888ZM285.413 34.0846V36.2817H277.034V34.0846H285.413ZM287.41 44.855V34.0846H290.06L290.167 36.0233C290.526 35.3052 291.015 34.7667 291.632 34.4077C292.264 34.0487 292.96 33.8692 293.721 33.8692C294.497 33.8692 295.193 34.0487 295.811 34.4077C296.443 34.7667 296.917 35.298 297.233 36.0017C297.462 35.5278 297.771 35.1329 298.159 34.817C298.547 34.501 298.977 34.2641 299.451 34.1061C299.925 33.9482 300.406 33.8692 300.895 33.8692C301.598 33.8692 302.237 34.0128 302.812 34.3C303.4 34.5872 303.867 35.018 304.212 35.5924C304.556 36.1669 304.729 36.8992 304.729 37.7896V44.855H301.778V38.3712C301.778 37.5814 301.605 37.0213 301.261 36.691C300.916 36.3607 300.471 36.1956 299.925 36.1956C299.494 36.1956 299.092 36.3033 298.719 36.5187C298.36 36.7341 298.073 37.0572 297.857 37.488C297.656 37.9045 297.556 38.4286 297.556 39.0605V44.855H294.605V38.3712C294.605 37.5814 294.425 37.0213 294.066 36.691C293.721 36.3607 293.276 36.1956 292.731 36.1956C292.357 36.1956 291.984 36.2961 291.61 36.4971C291.251 36.6982 290.95 37.0141 290.706 37.4449C290.476 37.8758 290.361 38.443 290.361 39.1467V44.855H287.41ZM312.77 45.0704C311.636 45.0704 310.645 44.8478 309.798 44.4026C308.965 43.9574 308.319 43.3184 307.859 42.4855C307.399 41.6526 307.17 40.6473 307.17 39.4698C307.17 38.2922 307.399 37.287 307.859 36.4541C308.319 35.6212 308.958 34.9821 309.776 34.5369C310.609 34.0918 311.557 33.8692 312.619 33.8692C313.711 33.8692 314.637 34.0918 315.398 34.5369C316.159 34.9678 316.741 35.5637 317.143 36.3248C317.545 37.0716 317.746 37.926 317.746 38.8882C317.746 39.1754 317.739 39.4482 317.725 39.7067C317.71 39.9652 317.689 40.195 317.66 40.396H309.065V38.3497H316.368L314.946 38.8666C314.946 37.9619 314.738 37.2654 314.321 36.7772C313.919 36.2889 313.345 36.0448 312.598 36.0448C312.052 36.0448 311.578 36.174 311.176 36.4325C310.789 36.691 310.494 37.0788 310.293 37.5957C310.092 38.0983 309.992 38.7374 309.992 39.5129C309.992 40.274 310.099 40.9058 310.315 41.4085C310.544 41.8967 310.86 42.2629 311.262 42.507C311.679 42.7512 312.174 42.8732 312.749 42.8732C313.381 42.8732 313.89 42.7512 314.278 42.507C314.666 42.2629 314.967 41.9254 315.183 41.4946L317.531 42.3993C317.301 42.9594 316.949 43.4405 316.475 43.8426C316.016 44.2447 315.463 44.5534 314.817 44.7688C314.185 44.9699 313.503 45.0704 312.77 45.0704ZM320.247 44.855V34.0846H322.897L323.069 37.3157L322.703 36.971C322.875 36.2674 323.148 35.6858 323.521 35.2262C323.895 34.7667 324.347 34.4292 324.878 34.2138C325.424 33.9841 326.02 33.8692 326.666 33.8692C327.413 33.8692 328.074 34.0128 328.648 34.3C329.237 34.5872 329.696 35.0252 330.027 35.614C330.371 36.1884 330.544 36.9136 330.544 37.7896V44.855H327.593V38.6297C327.593 37.7106 327.413 37.0788 327.054 36.7341C326.695 36.3751 326.228 36.1956 325.654 36.1956C325.252 36.1956 324.857 36.2961 324.469 36.4971C324.096 36.6838 323.787 36.9926 323.543 37.4234C323.313 37.8542 323.198 38.4286 323.198 39.1467V44.855H320.247ZM337.312 30.7888V41.3438C337.312 41.8608 337.442 42.2414 337.7 42.4855C337.973 42.7153 338.339 42.8301 338.799 42.8301C339.158 42.8301 339.474 42.7799 339.747 42.6794C340.019 42.5645 340.264 42.4137 340.479 42.227L340.953 44.1872C340.608 44.4601 340.177 44.6755 339.66 44.8334C339.143 44.9914 338.598 45.0704 338.023 45.0704C337.305 45.0704 336.666 44.9627 336.106 44.7473C335.56 44.5319 335.13 44.1872 334.814 43.7133C334.512 43.2394 334.361 42.6076 334.361 41.8177V31.6074L337.312 30.7888ZM340.759 34.0846V36.2817H332.38V34.0846H340.759Z" fill="#324575"/>
<path d="M46.3955 74.1499H594.909" stroke="black" stroke-opacity="0.15" stroke-width="0.414246"/>
<path d="M46.3955 111.846H597.343" stroke="black" stroke-opacity="0.15" stroke-width="0.414246"/>
<path d="M46.3955 149.957H597.343" stroke="black" stroke-opacity="0.15" stroke-width="0.414246"/>
<path d="M46.3955 188.068H597.343" stroke="black" stroke-opacity="0.15" stroke-width="0.414246"/>
<path d="M46.3955 226.179H597.343" stroke="black" stroke-opacity="0.15" stroke-width="0.414246"/>
<path d="M46.3955 264.289H597.343" stroke="black" stroke-opacity="0.15" stroke-width="0.414246"/>
<path d="M46.3955 302.4H597.343" stroke="black" stroke-opacity="0.15" stroke-width="0.414246"/>
<path d="M46.3955 339.682L597.343 339.682" stroke="black" stroke-opacity="0.15" stroke-width="0.414246"/>
<path d="M47.2072 74.5645L46.3958 339.682" stroke="black" stroke-opacity="0.15" stroke-width="0.414246"/>
<path d="M95.8915 74.5645L95.0801 339.682" stroke="black" stroke-opacity="0.15" stroke-width="0.414246"/>
<path d="M145.388 74.5645L144.576 339.682" stroke="black" stroke-opacity="0.15" stroke-width="0.414246"/>
<path d="M194.884 74.5645L194.072 339.682" stroke="black" stroke-opacity="0.15" stroke-width="0.414246"/>
<path d="M244.38 74.5645L243.568 339.682" stroke="black" stroke-opacity="0.15" stroke-width="0.414246"/>
<path d="M293.876 74.5645L293.064 339.682" stroke="black" stroke-opacity="0.15" stroke-width="0.414246"/>
<path d="M343.372 74.5645L342.56 339.682" stroke="black" stroke-opacity="0.15" stroke-width="0.414246"/>
<path d="M392.868 74.5645L392.056 339.682" stroke="black" stroke-opacity="0.15" stroke-width="0.414246"/>
<path d="M442.364 74.5645L441.552 339.682" stroke="black" stroke-opacity="0.15" stroke-width="0.414246"/>
<path d="M491.86 74.5645L491.048 339.682" stroke="black" stroke-opacity="0.15" stroke-width="0.414246"/>
<path d="M541.356 74.5645L540.544 339.682" stroke="black" stroke-opacity="0.15" stroke-width="0.414246"/>
<path d="M47.2241 302.4C47.2241 302.4 69.2045 187.294 102.255 187.294C135.305 187.294 96.1937 265.159 132.653 265.159C169.111 265.159 154.722 149.207 183.871 149.207C213.019 149.207 208.855 265.159 234.672 265.159C260.49 265.159 270.9 69.2253 315.872 133.549C360.844 197.873 365.424 260.928 365.424 260.928C365.424 260.928 398.321 302.4 434.548 302.4C470.776 302.4 395.822 133.549 434.548 133.549C473.274 133.549 484.517 230.035 505.337 230.035C526.158 230.035 597.343 106.047 597.343 106.047" stroke="#003FDB" stroke-width="1.65698"/>
<circle cx="101.076" cy="187.653" r="3.31397" fill="#5373C2"/>
<circle cx="48.0525" cy="301.571" r="3.31397" fill="#5373C2"/>
<circle cx="117.646" cy="251.447" r="3.31397" fill="#5373C2"/>
<circle cx="148.3" cy="254.761" r="3.31397" fill="#5373C2"/>
<circle cx="186.411" cy="149.542" r="3.31397" fill="#5373C2"/>
<circle cx="234.463" cy="264.703" r="3.31397" fill="#5373C2"/>
<circle cx="265.946" cy="182.682" r="3.31397" fill="#5373C2"/>
<circle cx="285.001" cy="130.073" r="3.31397" fill="#5373C2"/>
<circle cx="313.17" cy="129.659" r="3.31397" fill="#5373C2"/>
<circle cx="365.365" cy="258.49" r="3.31397" fill="#5373C2"/>
<circle cx="405.961" cy="293.286" r="3.31397" fill="#5373C2"/>
<circle cx="436.615" cy="302.399" r="3.31397" fill="#5373C2"/>
<circle cx="427.502" cy="189.724" r="3.31397" fill="#5373C2"/>
<circle cx="425.017" cy="140.015" r="3.31397" fill="#5373C2"/>
<circle cx="462.299" cy="153.271" r="3.31397" fill="#5373C2"/>
<circle cx="488.811" cy="210.437" r="3.31397" fill="#5373C2"/>
<circle cx="504.552" cy="229.492" r="3.31397" fill="#5373C2"/>
<circle cx="595.686" cy="108.532" r="3.31397" fill="#5373C2"/>
<path d="M35.2105 340.028C34.3444 340.028 33.6524 339.691 33.1343 339.019C32.6162 338.346 32.3571 337.368 32.3571 336.084C32.3571 334.8 32.6162 333.822 33.1343 333.149C33.6524 332.477 34.3444 332.14 35.2105 332.14C36.0843 332.14 36.7763 332.477 37.2867 333.149C37.8048 333.822 38.0638 334.8 38.0638 336.084C38.0638 337.368 37.8048 338.346 37.2867 339.019C36.7763 339.691 36.0843 340.028 35.2105 340.028ZM35.2105 339.192C35.6203 339.192 35.9644 339.077 36.2428 338.845C36.5289 338.605 36.7415 338.253 36.8807 337.789C37.0276 337.325 37.1011 336.757 37.1011 336.084C37.1011 335.411 37.0276 334.843 36.8807 334.379C36.7415 333.915 36.5289 333.567 36.2428 333.335C35.9644 333.095 35.6203 332.975 35.2105 332.975C34.8006 332.975 34.4527 333.095 34.1666 333.335C33.8882 333.567 33.6756 333.915 33.5286 334.379C33.3894 334.843 33.3199 335.411 33.3199 336.084C33.3199 336.757 33.3894 337.325 33.5286 337.789C33.6756 338.253 33.8882 338.605 34.1666 338.845C34.4527 339.077 34.8006 339.192 35.2105 339.192Z" fill="#988282"/>
<path d="M26.7848 300.144V299.39C27.5504 298.826 28.1883 298.331 28.6987 297.905C29.2167 297.48 29.6304 297.094 29.9397 296.746C30.249 296.398 30.4694 296.069 30.6009 295.76C30.7323 295.443 30.7981 295.114 30.7981 294.774C30.7981 294.318 30.6511 293.95 30.3573 293.672C30.0712 293.386 29.6768 293.243 29.1742 293.243C28.6484 293.243 28.227 293.417 27.9099 293.765C27.5929 294.105 27.4073 294.561 27.3532 295.133L26.5413 294.646C26.6109 294.198 26.7539 293.803 26.9704 293.463C27.1947 293.123 27.4924 292.856 27.8635 292.663C28.2424 292.469 28.6909 292.373 29.209 292.373C29.6034 292.373 29.9552 292.431 30.2645 292.547C30.5815 292.663 30.8522 292.829 31.0764 293.046C31.3007 293.254 31.4708 293.506 31.5868 293.799C31.7105 294.093 31.7724 294.418 31.7724 294.774C31.7724 295.253 31.6564 295.725 31.4244 296.189C31.1924 296.645 30.8097 297.124 30.2761 297.627C29.7426 298.13 29.0196 298.686 28.1071 299.297V299.309C28.1922 299.301 28.3082 299.297 28.4551 299.297C28.6097 299.29 28.7605 299.286 28.9074 299.286C29.0621 299.278 29.1781 299.274 29.2554 299.274H31.9348V300.144H26.7848ZM36.0177 300.26C35.3372 300.26 34.7882 300.105 34.3706 299.796C33.9608 299.487 33.6437 299.058 33.4195 298.509L34.3242 298.033C34.4479 298.435 34.6374 298.764 34.8926 299.019C35.1555 299.266 35.5382 299.39 36.0408 299.39C36.3965 299.39 36.6981 299.324 36.9456 299.193C37.2007 299.061 37.3979 298.876 37.5371 298.636C37.6763 298.389 37.7459 298.095 37.7459 297.755C37.7459 297.391 37.6802 297.09 37.5487 296.85C37.425 296.603 37.2433 296.417 37.0036 296.293C36.7638 296.169 36.47 296.108 36.122 296.108C35.8746 296.108 35.6426 296.135 35.4261 296.189C35.2173 296.235 35.0279 296.313 34.8578 296.421C34.6876 296.529 34.5407 296.672 34.417 296.85L33.6051 296.699L34.0574 292.489H38.3606V293.359H34.8462L34.5446 295.771L34.5214 295.876H34.5446C34.7302 295.682 34.966 295.528 35.2521 295.412C35.546 295.296 35.8939 295.238 36.296 295.238C36.7832 295.238 37.2046 295.342 37.5603 295.551C37.9237 295.752 38.206 296.038 38.407 296.409C38.6081 296.78 38.7086 297.213 38.7086 297.708C38.7086 298.103 38.6429 298.458 38.5114 298.775C38.38 299.092 38.1944 299.363 37.9547 299.587C37.715 299.804 37.4289 299.97 37.0963 300.086C36.7716 300.202 36.412 300.26 36.0177 300.26Z" fill="#988282"/>
<path d="M29.0289 264.635C28.3484 264.635 27.7994 264.48 27.3818 264.171C26.972 263.861 26.655 263.432 26.4307 262.883L27.3354 262.408C27.4591 262.81 27.6486 263.138 27.9038 263.394C28.1667 263.641 28.5494 263.765 29.0521 263.765C29.4078 263.765 29.7093 263.699 29.9568 263.568C30.212 263.436 30.4091 263.251 30.5483 263.011C30.6875 262.763 30.7571 262.47 30.7571 262.129C30.7571 261.766 30.6914 261.464 30.5599 261.225C30.4362 260.977 30.2545 260.792 30.0148 260.668C29.7751 260.544 29.4812 260.482 29.1333 260.482C28.8858 260.482 28.6538 260.509 28.4373 260.563C28.2285 260.61 28.0391 260.687 27.869 260.795C27.6989 260.904 27.5519 261.047 27.4282 261.225L26.6163 261.074L27.0687 256.863H31.3718V257.733H27.8574L27.5558 260.146L27.5326 260.25H27.5558C27.7414 260.057 27.9772 259.902 28.2633 259.786C28.5572 259.67 28.9051 259.612 29.3072 259.612C29.7944 259.612 30.2158 259.717 30.5715 259.926C30.9349 260.127 31.2172 260.413 31.4182 260.784C31.6193 261.155 31.7198 261.588 31.7198 262.083C31.7198 262.477 31.6541 262.833 31.5226 263.15C31.3912 263.467 31.2056 263.738 30.9659 263.962C30.7262 264.178 30.4401 264.345 30.1076 264.461C29.7828 264.577 29.4232 264.635 29.0289 264.635ZM36.0582 264.635C35.1921 264.635 34.5 264.298 33.982 263.626C33.4639 262.953 33.2048 261.975 33.2048 260.691C33.2048 259.407 33.4639 258.429 33.982 257.757C34.5 257.084 35.1921 256.747 36.0582 256.747C36.9319 256.747 37.624 257.084 38.1344 257.757C38.6524 258.429 38.9115 259.407 38.9115 260.691C38.9115 261.975 38.6524 262.953 38.1344 263.626C37.624 264.298 36.9319 264.635 36.0582 264.635ZM36.0582 263.8C36.468 263.8 36.8121 263.684 37.0905 263.452C37.3766 263.212 37.5892 262.86 37.7284 262.396C37.8753 261.932 37.9488 261.364 37.9488 260.691C37.9488 260.018 37.8753 259.45 37.7284 258.986C37.5892 258.522 37.3766 258.174 37.0905 257.942C36.8121 257.702 36.468 257.583 36.0582 257.583C35.6483 257.583 35.3004 257.702 35.0143 257.942C34.7359 258.174 34.5232 258.522 34.3763 258.986C34.2371 259.45 34.1675 260.018 34.1675 260.691C34.1675 261.364 34.2371 261.932 34.3763 262.396C34.5232 262.86 34.7359 263.212 35.0143 263.452C35.3004 263.684 35.6483 263.8 36.0582 263.8Z" fill="#988282"/>
<path d="M27.3492 218.753H32.9863V219.623C32.3445 220.303 31.8187 221.003 31.4088 221.722C31.0067 222.434 30.7129 223.176 30.5273 223.949C30.3417 224.722 30.249 225.542 30.249 226.408H29.2978C29.2978 225.55 29.4022 224.711 29.611 223.891C29.8275 223.064 30.1523 222.271 30.5853 221.513C31.0183 220.756 31.5558 220.048 32.1976 219.391L32.3484 219.623H27.3492V218.753ZM36.7159 226.524C36.0354 226.524 35.4864 226.37 35.0688 226.06C34.659 225.751 34.342 225.322 34.1177 224.773L35.0224 224.297C35.1462 224.699 35.3356 225.028 35.5908 225.283C35.8537 225.531 36.2365 225.654 36.7391 225.654C37.0948 225.654 37.3964 225.589 37.6438 225.457C37.899 225.326 38.0962 225.14 38.2353 224.9C38.3745 224.653 38.4441 224.359 38.4441 224.019C38.4441 223.655 38.3784 223.354 38.2469 223.114C38.1232 222.867 37.9415 222.681 37.7018 222.557C37.4621 222.434 37.1682 222.372 36.8203 222.372C36.5728 222.372 36.3409 222.399 36.1243 222.453C35.9156 222.499 35.7261 222.577 35.556 222.685C35.3859 222.793 35.239 222.936 35.1152 223.114L34.3033 222.963L34.7557 218.753H39.0589V219.623H35.5444L35.2428 222.035L35.2196 222.14H35.2428C35.4284 221.946 35.6642 221.792 35.9504 221.676C36.2442 221.56 36.5922 221.502 36.9943 221.502C37.4814 221.502 37.9028 221.606 38.2585 221.815C38.622 222.016 38.9042 222.302 39.1053 222.673C39.3063 223.045 39.4068 223.478 39.4068 223.972C39.4068 224.367 39.3411 224.722 39.2096 225.04C39.0782 225.357 38.8926 225.627 38.6529 225.851C38.4132 226.068 38.1271 226.234 37.7946 226.35C37.4698 226.466 37.1102 226.524 36.7159 226.524Z" fill="#988282"/>
<path d="M23.1497 188.297V182.683C23.1497 182.552 23.1497 182.413 23.1497 182.266C23.1574 182.111 23.1651 181.953 23.1729 181.79C22.9099 182.046 22.6045 182.27 22.2565 182.463C21.9086 182.649 21.5529 182.784 21.1894 182.869L20.9459 182.022C21.0851 182.007 21.259 181.957 21.4678 181.872C21.6843 181.779 21.9086 181.667 22.1406 181.535C22.3803 181.396 22.6006 181.249 22.8017 181.094C23.0027 180.94 23.1574 180.789 23.2656 180.642H24.0776V188.297H23.1497ZM28.8638 188.413C27.9978 188.413 27.3057 188.077 26.7876 187.404C26.2695 186.732 26.0105 185.753 26.0105 184.47C26.0105 183.186 26.2695 182.208 26.7876 181.535C27.3057 180.862 27.9978 180.526 28.8638 180.526C29.7376 180.526 30.4297 180.862 30.94 181.535C31.4581 182.208 31.7172 183.186 31.7172 184.47C31.7172 185.753 31.4581 186.732 30.94 187.404C30.4297 188.077 29.7376 188.413 28.8638 188.413ZM28.8638 187.578C29.2737 187.578 29.6178 187.462 29.8961 187.23C30.1822 186.991 30.3949 186.639 30.5341 186.175C30.681 185.711 30.7545 185.142 30.7545 184.47C30.7545 183.797 30.681 183.229 30.5341 182.765C30.3949 182.301 30.1822 181.953 29.8961 181.721C29.6178 181.481 29.2737 181.361 28.8638 181.361C28.454 181.361 28.106 181.481 27.8199 181.721C27.5416 181.953 27.3289 182.301 27.182 182.765C27.0428 183.229 26.9732 183.797 26.9732 184.47C26.9732 185.142 27.0428 185.711 27.182 186.175C27.3289 186.639 27.5416 186.991 27.8199 187.23C28.106 187.462 28.454 187.578 28.8638 187.578ZM36.0792 188.413C35.2131 188.413 34.521 188.077 34.003 187.404C33.4849 186.732 33.2258 185.753 33.2258 184.47C33.2258 183.186 33.4849 182.208 34.003 181.535C34.521 180.862 35.2131 180.526 36.0792 180.526C36.9529 180.526 37.645 180.862 38.1554 181.535C38.6734 182.208 38.9325 183.186 38.9325 184.47C38.9325 185.753 38.6734 186.732 38.1554 187.404C37.645 188.077 36.9529 188.413 36.0792 188.413ZM36.0792 187.578C36.489 187.578 36.8331 187.462 37.1115 187.23C37.3976 186.991 37.6102 186.639 37.7494 186.175C37.8963 185.711 37.9698 185.142 37.9698 184.47C37.9698 183.797 37.8963 183.229 37.7494 182.765C37.6102 182.301 37.3976 181.953 37.1115 181.721C36.8331 181.481 36.489 181.361 36.0792 181.361C35.6693 181.361 35.3214 181.481 35.0353 181.721C34.7569 181.953 34.5442 182.301 34.3973 182.765C34.2581 183.229 34.1885 183.797 34.1885 184.47C34.1885 185.142 34.2581 185.711 34.3973 186.175C34.5442 186.639 34.7569 186.991 35.0353 187.23C35.3214 187.462 35.6693 187.578 36.0792 187.578Z" fill="#988282"/>
<path d="M24.4369 150.187V144.573C24.4369 144.441 24.4369 144.302 24.4369 144.155C24.4446 144.001 24.4524 143.842 24.4601 143.68C24.1972 143.935 23.8917 144.159 23.5438 144.353C23.1958 144.538 22.8401 144.673 22.4767 144.758L22.2331 143.912C22.3723 143.896 22.5463 143.846 22.7551 143.761C22.9716 143.668 23.1958 143.556 23.4278 143.425C23.6675 143.285 23.8879 143.139 24.0889 142.984C24.29 142.829 24.4446 142.678 24.5529 142.531H25.3648V150.187H24.4369ZM27.4021 150.187V149.433C28.1677 148.868 28.8056 148.373 29.3159 147.948C29.834 147.523 30.2477 147.136 30.557 146.788C30.8663 146.44 31.0867 146.112 31.2182 145.802C31.3496 145.485 31.4153 145.157 31.4153 144.816C31.4153 144.36 31.2684 143.993 30.9746 143.715C30.6885 143.428 30.2941 143.285 29.7915 143.285C29.2657 143.285 28.8443 143.459 28.5272 143.807C28.2102 144.148 28.0246 144.604 27.9705 145.176L27.1586 144.689C27.2281 144.24 27.3712 143.846 27.5877 143.506C27.812 143.166 28.1097 142.899 28.4808 142.705C28.8597 142.512 29.3082 142.416 29.8263 142.416C30.2207 142.416 30.5725 142.474 30.8818 142.589C31.1988 142.705 31.4695 142.872 31.6937 143.088C31.918 143.297 32.0881 143.548 32.2041 143.842C32.3278 144.136 32.3897 144.461 32.3897 144.816C32.3897 145.296 32.2737 145.768 32.0417 146.232C31.8097 146.688 31.4269 147.167 30.8934 147.67C30.3598 148.172 29.6369 148.729 28.7244 149.34V149.352C28.8095 149.344 28.9255 149.34 29.0724 149.34C29.227 149.332 29.3778 149.328 29.5247 149.328C29.6794 149.321 29.7954 149.317 29.8727 149.317H32.552V150.187H27.4021ZM36.6349 150.303C35.9545 150.303 35.4055 150.148 34.9879 149.839C34.5781 149.529 34.261 149.1 34.0368 148.551L34.9415 148.076C35.0652 148.478 35.2547 148.806 35.5098 149.062C35.7728 149.309 36.1555 149.433 36.6581 149.433C37.0138 149.433 37.3154 149.367 37.5629 149.236C37.818 149.104 38.0152 148.919 38.1544 148.679C38.2936 148.431 38.3632 148.138 38.3632 147.797C38.3632 147.434 38.2974 147.132 38.166 146.893C38.0423 146.645 37.8606 146.46 37.6208 146.336C37.3811 146.212 37.0873 146.15 36.7393 146.15C36.4919 146.15 36.2599 146.177 36.0434 146.232C35.8346 146.278 35.6452 146.355 35.4751 146.464C35.3049 146.572 35.158 146.715 35.0343 146.893L34.2224 146.742L34.6747 142.531H38.9779V143.401H35.4635L35.1619 145.814L35.1387 145.918H35.1619C35.3475 145.725 35.5833 145.57 35.8694 145.454C36.1633 145.338 36.5112 145.28 36.9133 145.28C37.4005 145.28 37.8219 145.385 38.1776 145.594C38.541 145.795 38.8233 146.081 39.0243 146.452C39.2254 146.823 39.3259 147.256 39.3259 147.751C39.3259 148.145 39.2602 148.501 39.1287 148.818C38.9972 149.135 38.8117 149.406 38.572 149.63C38.3322 149.847 38.0461 150.013 37.7136 150.129C37.3889 150.245 37.0293 150.303 36.6349 150.303Z" fill="#988282"/>
<path d="M23.3819 112.076V106.462C23.3819 106.331 23.3819 106.191 23.3819 106.045C23.3896 105.89 23.3973 105.731 23.4051 105.569C23.1421 105.824 22.8367 106.048 22.4887 106.242C22.1408 106.427 21.7851 106.563 21.4216 106.648L21.1781 105.801C21.3173 105.785 21.4912 105.735 21.7 105.65C21.9165 105.557 22.1408 105.445 22.3728 105.314C22.6125 105.175 22.8328 105.028 23.0339 104.873C23.2349 104.718 23.3896 104.568 23.4978 104.421H24.3098V112.076H23.3819ZM28.8177 112.192C28.1372 112.192 27.5882 112.037 27.1706 111.728C26.7608 111.419 26.4438 110.989 26.2195 110.44L27.1242 109.965C27.2479 110.367 27.4374 110.696 27.6926 110.951C27.9555 111.198 28.3382 111.322 28.8409 111.322C29.1966 111.322 29.4981 111.256 29.7456 111.125C30.0008 110.993 30.1979 110.808 30.3371 110.568C30.4763 110.321 30.5459 110.027 30.5459 109.687C30.5459 109.323 30.4802 109.022 30.3487 108.782C30.225 108.534 30.0433 108.349 29.8036 108.225C29.5639 108.101 29.27 108.04 28.9221 108.04C28.6746 108.04 28.4426 108.067 28.2261 108.121C28.0173 108.167 27.8279 108.244 27.6578 108.353C27.4877 108.461 27.3407 108.604 27.217 108.782L26.4051 108.631L26.8575 104.421H31.1606V105.291H27.6462L27.3446 107.703L27.3214 107.808H27.3446C27.5302 107.614 27.766 107.46 28.0521 107.344C28.346 107.228 28.6939 107.17 29.096 107.17C29.5832 107.17 30.0046 107.274 30.3603 107.483C30.7237 107.684 31.006 107.97 31.207 108.341C31.4081 108.712 31.5086 109.145 31.5086 109.64C31.5086 110.035 31.4429 110.39 31.3114 110.707C31.18 111.024 30.9944 111.295 30.7547 111.519C30.515 111.736 30.2289 111.902 29.8964 112.018C29.5716 112.134 29.212 112.192 28.8177 112.192ZM35.847 112.192C34.9809 112.192 34.2888 111.856 33.7708 111.183C33.2527 110.51 32.9936 109.532 32.9936 108.248C32.9936 106.965 33.2527 105.987 33.7708 105.314C34.2888 104.641 34.9809 104.305 35.847 104.305C36.7207 104.305 37.4128 104.641 37.9232 105.314C38.4412 105.987 38.7003 106.965 38.7003 108.248C38.7003 109.532 38.4412 110.51 37.9232 111.183C37.4128 111.856 36.7207 112.192 35.847 112.192ZM35.847 111.357C36.2568 111.357 36.6009 111.241 36.8793 111.009C37.1654 110.769 37.378 110.417 37.5172 109.953C37.6641 109.489 37.7376 108.921 37.7376 108.248C37.7376 107.576 37.6641 107.007 37.5172 106.543C37.378 106.079 37.1654 105.731 36.8793 105.499C36.6009 105.26 36.2568 105.14 35.847 105.14C35.4371 105.14 35.0892 105.26 34.8031 105.499C34.5247 105.731 34.312 106.079 34.1651 106.543C34.0259 107.007 33.9563 107.576 33.9563 108.248C33.9563 108.921 34.0259 109.489 34.1651 109.953C34.312 110.417 34.5247 110.769 34.8031 111.009C35.0892 111.241 35.4371 111.357 35.847 111.357Z" fill="#988282"/>
<path d="M24.0672 74.7939V69.1801C24.0672 69.0486 24.0672 68.9094 24.0672 68.7625C24.0749 68.6079 24.0826 68.4493 24.0904 68.287C23.8274 68.5421 23.522 68.7664 23.174 68.9597C22.8261 69.1453 22.4704 69.2806 22.1069 69.3657L21.8634 68.5189C22.0025 68.5035 22.1765 68.4532 22.3853 68.3682C22.6018 68.2754 22.8261 68.1632 23.058 68.0318C23.2978 67.8926 23.5181 67.7457 23.7192 67.591C23.9202 67.4364 24.0749 67.2856 24.1831 67.1387H24.9951V74.7939H24.0672ZM26.638 67.1387H32.2751V68.0086C31.6333 68.6891 31.1075 69.3889 30.6976 70.108C30.2955 70.8194 30.0017 71.5617 29.8161 72.335C29.6305 73.1082 29.5378 73.9279 29.5378 74.7939H28.5866C28.5866 73.9356 28.691 73.0966 28.8998 72.277C29.1163 71.4496 29.4411 70.657 29.8741 69.8992C30.3071 69.1414 30.8446 68.4339 31.4864 67.7766L31.6372 68.0086H26.638V67.1387ZM36.0047 74.9099C35.3242 74.9099 34.7752 74.7553 34.3576 74.446C33.9478 74.1367 33.6308 73.7075 33.4065 73.1585L34.3112 72.6829C34.435 73.085 34.6244 73.4137 34.8796 73.6689C35.1425 73.9163 35.5253 74.04 36.0279 74.04C36.3836 74.04 36.6851 73.9743 36.9326 73.8428C37.1878 73.7114 37.3849 73.5258 37.5241 73.2861C37.6633 73.0386 37.7329 72.7448 37.7329 72.4046C37.7329 72.0411 37.6672 71.7396 37.5357 71.4999C37.412 71.2524 37.2303 71.0668 36.9906 70.9431C36.7509 70.8194 36.457 70.7575 36.1091 70.7575C35.8616 70.7575 35.6297 70.7846 35.4131 70.8387C35.2044 70.8851 35.0149 70.9624 34.8448 71.0707C34.6747 71.179 34.5278 71.322 34.404 71.4999L33.5921 71.3491L34.0445 67.1387H38.3477V68.0086H34.8332L34.5316 70.4212L34.5084 70.5256H34.5316C34.7172 70.3322 34.953 70.1776 35.2392 70.0616C35.533 69.9456 35.881 69.8876 36.2831 69.8876C36.7702 69.8876 37.1916 69.992 37.5473 70.2008C37.9108 70.4018 38.193 70.6879 38.3941 71.0591C38.5951 71.4303 38.6956 71.8633 38.6956 72.3582C38.6956 72.7525 38.6299 73.1082 38.4984 73.4253C38.367 73.7423 38.1814 74.013 37.9417 74.2372C37.702 74.4537 37.4159 74.62 37.0834 74.736C36.7586 74.8519 36.399 74.9099 36.0047 74.9099Z" fill="#988282"/>
<path d="M91.2736 357.426C90.5931 357.426 90.0441 357.271 89.6265 356.962C89.2167 356.653 88.8996 356.223 88.6754 355.674L89.5801 355.199C89.7038 355.601 89.8933 355.93 90.1485 356.185C90.4114 356.432 90.7941 356.556 91.2968 356.556C91.6524 356.556 91.954 356.49 92.2015 356.359C92.4566 356.227 92.6538 356.042 92.793 355.802C92.9322 355.555 93.0018 355.261 93.0018 354.92C93.0018 354.557 92.9361 354.255 92.8046 354.016C92.6809 353.768 92.4992 353.583 92.2595 353.459C92.0197 353.335 91.7259 353.273 91.3779 353.273C91.1305 353.273 90.8985 353.3 90.682 353.355C90.4732 353.401 90.2838 353.478 90.1137 353.587C89.9435 353.695 89.7966 353.838 89.6729 354.016L88.861 353.865L89.3133 349.655H93.6165V350.524H90.1021L89.8005 352.937L89.7773 353.041H89.8005C89.9861 352.848 90.2219 352.693 90.508 352.577C90.8019 352.461 91.1498 352.403 91.5519 352.403C92.0391 352.403 92.4605 352.508 92.8162 352.717C93.1796 352.918 93.4619 353.204 93.6629 353.575C93.864 353.946 93.9645 354.379 93.9645 354.874C93.9645 355.268 93.8988 355.624 93.7673 355.941C93.6359 356.258 93.4503 356.529 93.2106 356.753C92.9709 356.97 92.6848 357.136 92.3523 357.252C92.0275 357.368 91.6679 357.426 91.2736 357.426Z" fill="#988282"/>
<path d="M138.418 357.31V351.696C138.418 351.565 138.418 351.426 138.418 351.279C138.426 351.124 138.433 350.965 138.441 350.803C138.178 351.058 137.873 351.282 137.525 351.476C137.177 351.661 136.821 351.797 136.458 351.882L136.214 351.035C136.353 351.02 136.527 350.969 136.736 350.884C136.953 350.791 137.177 350.679 137.409 350.548C137.649 350.409 137.869 350.262 138.07 350.107C138.271 349.952 138.426 349.802 138.534 349.655H139.346V357.31H138.418ZM144.132 357.426C143.266 357.426 142.574 357.09 142.056 356.417C141.538 355.744 141.279 354.766 141.279 353.482C141.279 352.199 141.538 351.221 142.056 350.548C142.574 349.875 143.266 349.539 144.132 349.539C145.006 349.539 145.698 349.875 146.208 350.548C146.726 351.221 146.985 352.199 146.985 353.482C146.985 354.766 146.726 355.744 146.208 356.417C145.698 357.09 145.006 357.426 144.132 357.426ZM144.132 356.591C144.542 356.591 144.886 356.475 145.164 356.243C145.451 356.003 145.663 355.651 145.802 355.187C145.949 354.724 146.023 354.155 146.023 353.482C146.023 352.81 145.949 352.241 145.802 351.777C145.663 351.313 145.451 350.965 145.164 350.733C144.886 350.494 144.542 350.374 144.132 350.374C143.722 350.374 143.374 350.494 143.088 350.733C142.81 350.965 142.597 351.313 142.45 351.777C142.311 352.241 142.242 352.81 142.242 353.482C142.242 354.155 142.311 354.724 142.45 355.187C142.597 355.651 142.81 356.003 143.088 356.243C143.374 356.475 143.722 356.591 144.132 356.591Z" fill="#988282"/>
<path d="M189.188 357.31V351.696C189.188 351.565 189.188 351.426 189.188 351.279C189.196 351.124 189.204 350.965 189.212 350.803C188.949 351.058 188.643 351.282 188.295 351.476C187.947 351.661 187.592 351.797 187.228 351.882L186.985 351.035C187.124 351.02 187.298 350.969 187.506 350.884C187.723 350.791 187.947 350.679 188.179 350.548C188.419 350.409 188.639 350.262 188.84 350.107C189.041 349.952 189.196 349.802 189.304 349.655H190.116V357.31H189.188ZM194.624 357.426C193.944 357.426 193.395 357.271 192.977 356.962C192.567 356.653 192.25 356.224 192.026 355.675L192.931 355.199C193.054 355.601 193.244 355.93 193.499 356.185C193.762 356.432 194.145 356.556 194.647 356.556C195.003 356.556 195.305 356.49 195.552 356.359C195.807 356.227 196.004 356.042 196.144 355.802C196.283 355.555 196.352 355.261 196.352 354.921C196.352 354.557 196.287 354.256 196.155 354.016C196.031 353.769 195.85 353.583 195.61 353.459C195.37 353.336 195.076 353.274 194.729 353.274C194.481 353.274 194.249 353.301 194.033 353.355C193.824 353.401 193.634 353.479 193.464 353.587C193.294 353.695 193.147 353.838 193.023 354.016L192.212 353.865L192.664 349.655H196.967V350.525H193.453L193.151 352.937L193.128 353.042H193.151C193.337 352.848 193.572 352.694 193.859 352.578C194.152 352.462 194.5 352.404 194.902 352.404C195.39 352.404 195.811 352.508 196.167 352.717C196.53 352.918 196.812 353.204 197.013 353.575C197.215 353.946 197.315 354.379 197.315 354.874C197.315 355.269 197.249 355.624 197.118 355.941C196.986 356.258 196.801 356.529 196.561 356.753C196.321 356.97 196.035 357.136 195.703 357.252C195.378 357.368 195.018 357.426 194.624 357.426Z" fill="#988282"/>
<path d="M237.818 357.31V356.556C238.584 355.992 239.222 355.497 239.732 355.071C240.25 354.646 240.664 354.26 240.973 353.912C241.283 353.564 241.503 353.235 241.634 352.926C241.766 352.609 241.832 352.28 241.832 351.94C241.832 351.484 241.685 351.116 241.391 350.838C241.105 350.552 240.71 350.409 240.208 350.409C239.682 350.409 239.261 350.583 238.944 350.931C238.627 351.271 238.441 351.727 238.387 352.299L237.575 351.812C237.644 351.364 237.788 350.969 238.004 350.629C238.228 350.289 238.526 350.022 238.897 349.829C239.276 349.635 239.725 349.539 240.243 349.539C240.637 349.539 240.989 349.597 241.298 349.713C241.615 349.829 241.886 349.995 242.11 350.212C242.334 350.42 242.504 350.672 242.62 350.965C242.744 351.259 242.806 351.584 242.806 351.94C242.806 352.419 242.69 352.891 242.458 353.355C242.226 353.811 241.843 354.29 241.31 354.793C240.776 355.296 240.053 355.852 239.141 356.463V356.475C239.226 356.467 239.342 356.463 239.489 356.463C239.643 356.456 239.794 356.452 239.941 356.452C240.096 356.444 240.212 356.44 240.289 356.44H242.968V357.31H237.818ZM247.33 357.426C246.464 357.426 245.772 357.09 245.253 356.417C244.735 355.744 244.476 354.766 244.476 353.482C244.476 352.199 244.735 351.221 245.253 350.548C245.772 349.875 246.464 349.539 247.33 349.539C248.203 349.539 248.895 349.875 249.406 350.548C249.924 351.221 250.183 352.199 250.183 353.482C250.183 354.766 249.924 355.744 249.406 356.417C248.895 357.09 248.203 357.426 247.33 357.426ZM247.33 356.591C247.739 356.591 248.084 356.475 248.362 356.243C248.648 356.003 248.861 355.651 249 355.187C249.147 354.724 249.22 354.155 249.22 353.482C249.22 352.81 249.147 352.241 249 351.777C248.861 351.313 248.648 350.965 248.362 350.733C248.084 350.494 247.739 350.374 247.33 350.374C246.92 350.374 246.572 350.494 246.286 350.733C246.007 350.965 245.795 351.313 245.648 351.777C245.509 352.241 245.439 352.81 245.439 353.482C245.439 354.155 245.509 354.724 245.648 355.187C245.795 355.651 246.007 356.003 246.286 356.243C246.572 356.475 246.92 356.591 247.33 356.591Z" fill="#988282"/>
<path d="M287.76 357.31V356.556C288.526 355.992 289.164 355.497 289.674 355.071C290.192 354.646 290.606 354.26 290.915 353.912C291.224 353.564 291.445 353.235 291.576 352.926C291.708 352.609 291.773 352.28 291.773 351.94C291.773 351.484 291.626 351.116 291.333 350.838C291.046 350.552 290.652 350.409 290.149 350.409C289.624 350.409 289.202 350.583 288.885 350.931C288.568 351.271 288.383 351.727 288.328 352.299L287.516 351.812C287.586 351.364 287.729 350.969 287.946 350.629C288.17 350.289 288.468 350.022 288.839 349.829C289.218 349.635 289.666 349.539 290.184 349.539C290.579 349.539 290.93 349.597 291.24 349.713C291.557 349.829 291.827 349.995 292.052 350.212C292.276 350.42 292.446 350.672 292.562 350.965C292.686 351.259 292.748 351.584 292.748 351.94C292.748 352.419 292.632 352.891 292.4 353.355C292.168 353.811 291.785 354.29 291.251 354.793C290.718 355.296 289.995 355.852 289.082 356.463V356.475C289.167 356.467 289.283 356.463 289.43 356.463C289.585 356.456 289.736 356.452 289.883 356.452C290.037 356.444 290.153 356.44 290.231 356.44H292.91V357.31H287.76ZM296.993 357.426C296.312 357.426 295.763 357.271 295.346 356.962C294.936 356.653 294.619 356.224 294.395 355.675L295.299 355.199C295.423 355.601 295.613 355.93 295.868 356.185C296.131 356.432 296.513 356.556 297.016 356.556C297.372 356.556 297.673 356.49 297.921 356.359C298.176 356.227 298.373 356.042 298.512 355.802C298.652 355.555 298.721 355.261 298.721 354.921C298.721 354.557 298.655 354.256 298.524 354.016C298.4 353.769 298.218 353.583 297.979 353.459C297.739 353.336 297.445 353.274 297.097 353.274C296.85 353.274 296.618 353.301 296.401 353.355C296.193 353.401 296.003 353.479 295.833 353.587C295.663 353.695 295.516 353.838 295.392 354.016L294.58 353.865L295.033 349.655H299.336V350.525H295.821L295.52 352.937L295.497 353.042H295.52C295.705 352.848 295.941 352.694 296.227 352.578C296.521 352.462 296.869 352.404 297.271 352.404C297.758 352.404 298.18 352.508 298.536 352.717C298.899 352.918 299.181 353.204 299.382 353.575C299.583 353.946 299.684 354.379 299.684 354.874C299.684 355.269 299.618 355.624 299.487 355.941C299.355 356.258 299.17 356.529 298.93 356.753C298.69 356.97 298.404 357.136 298.072 357.252C297.747 357.368 297.387 357.426 296.993 357.426Z" fill="#988282"/>
<path d="M341.4 357.426C340.719 357.426 340.116 357.268 339.59 356.95C339.072 356.626 338.721 356.181 338.535 355.617L339.463 355.141C339.556 355.427 339.683 355.678 339.846 355.895C340.008 356.104 340.221 356.266 340.484 356.382C340.754 356.498 341.091 356.556 341.493 356.556C341.833 356.556 342.119 356.494 342.351 356.371C342.583 356.247 342.761 356.081 342.885 355.872C343.008 355.655 343.07 355.408 343.07 355.129C343.07 354.851 343.016 354.619 342.908 354.434C342.807 354.248 342.645 354.113 342.421 354.028C342.196 353.935 341.903 353.888 341.539 353.888C341.454 353.888 341.361 353.892 341.261 353.9C341.16 353.9 341.056 353.908 340.948 353.923V352.995C341.017 353.003 341.083 353.007 341.145 353.007C341.214 353.007 341.276 353.007 341.33 353.007C341.895 353.007 342.297 352.899 342.537 352.682C342.776 352.458 342.896 352.11 342.896 351.638C342.896 351.236 342.772 350.931 342.525 350.722C342.278 350.513 341.926 350.409 341.47 350.409C340.982 350.409 340.611 350.517 340.356 350.733C340.101 350.942 339.9 351.228 339.753 351.592L338.871 351.174C338.995 350.849 339.181 350.563 339.428 350.316C339.676 350.068 339.973 349.875 340.321 349.736C340.677 349.597 341.067 349.527 341.493 349.527C342.026 349.527 342.467 349.62 342.815 349.806C343.163 349.983 343.422 350.223 343.592 350.525C343.77 350.826 343.859 351.159 343.859 351.522C343.859 351.801 343.82 352.052 343.743 352.276C343.666 352.493 343.557 352.682 343.418 352.844C343.287 353.007 343.136 353.138 342.966 353.239C342.796 353.332 342.614 353.393 342.421 353.424V353.448C342.676 353.455 342.9 353.506 343.093 353.598C343.294 353.691 343.465 353.815 343.604 353.97C343.743 354.124 343.847 354.302 343.917 354.503C343.994 354.696 344.033 354.901 344.033 355.118C344.033 355.566 343.921 355.965 343.696 356.313C343.48 356.661 343.175 356.935 342.78 357.136C342.386 357.329 341.926 357.426 341.4 357.426ZM348.406 357.426C347.54 357.426 346.848 357.09 346.33 356.417C345.811 355.744 345.552 354.766 345.552 353.482C345.552 352.199 345.811 351.221 346.33 350.548C346.848 349.875 347.54 349.539 348.406 349.539C349.28 349.539 349.972 349.875 350.482 350.548C351 351.221 351.259 352.199 351.259 353.482C351.259 354.766 351 355.744 350.482 356.417C349.972 357.09 349.28 357.426 348.406 357.426ZM348.406 356.591C348.816 356.591 349.16 356.475 349.438 356.243C349.724 356.003 349.937 355.651 350.076 355.187C350.223 354.724 350.296 354.155 350.296 353.482C350.296 352.81 350.223 352.241 350.076 351.777C349.937 351.313 349.724 350.965 349.438 350.733C349.16 350.494 348.816 350.374 348.406 350.374C347.996 350.374 347.648 350.494 347.362 350.733C347.083 350.965 346.871 351.313 346.724 351.777C346.585 352.241 346.515 352.81 346.515 353.482C346.515 354.155 346.585 354.724 346.724 355.187C346.871 355.651 347.083 356.003 347.362 356.243C347.648 356.475 347.996 356.591 348.406 356.591Z" fill="#988282"/>
<path d="M391.342 357.426C390.661 357.426 390.058 357.268 389.532 356.95C389.014 356.626 388.662 356.181 388.477 355.617L389.405 355.141C389.497 355.427 389.625 355.678 389.787 355.895C389.95 356.104 390.162 356.266 390.425 356.382C390.696 356.498 391.032 356.556 391.434 356.556C391.775 356.556 392.061 356.494 392.293 356.371C392.525 356.247 392.703 356.081 392.826 355.872C392.95 355.655 393.012 355.408 393.012 355.129C393.012 354.851 392.958 354.619 392.849 354.434C392.749 354.248 392.587 354.113 392.362 354.028C392.138 353.935 391.844 353.888 391.481 353.888C391.396 353.888 391.303 353.892 391.202 353.9C391.102 353.9 390.997 353.908 390.889 353.923V352.995C390.959 353.003 391.025 353.007 391.086 353.007C391.156 353.007 391.218 353.007 391.272 353.007C391.836 353.007 392.239 352.899 392.478 352.682C392.718 352.458 392.838 352.11 392.838 351.638C392.838 351.236 392.714 350.931 392.467 350.722C392.219 350.513 391.867 350.409 391.411 350.409C390.924 350.409 390.553 350.517 390.298 350.733C390.043 350.942 389.841 351.228 389.695 351.592L388.813 351.174C388.937 350.849 389.122 350.563 389.37 350.316C389.617 350.068 389.915 349.875 390.263 349.736C390.619 349.597 391.009 349.527 391.434 349.527C391.968 349.527 392.409 349.62 392.757 349.806C393.105 349.983 393.364 350.223 393.534 350.525C393.712 350.826 393.801 351.159 393.801 351.522C393.801 351.801 393.762 352.052 393.685 352.276C393.607 352.493 393.499 352.682 393.36 352.844C393.228 353.007 393.078 353.138 392.907 353.239C392.737 353.332 392.556 353.393 392.362 353.424V353.448C392.617 353.455 392.842 353.506 393.035 353.598C393.236 353.691 393.406 353.815 393.545 353.97C393.685 354.124 393.789 354.302 393.859 354.503C393.936 354.696 393.975 354.901 393.975 355.118C393.975 355.566 393.862 355.965 393.638 356.313C393.422 356.661 393.116 356.935 392.722 357.136C392.328 357.329 391.867 357.426 391.342 357.426ZM398.069 357.426C397.389 357.426 396.84 357.271 396.422 356.962C396.012 356.653 395.695 356.224 395.471 355.675L396.376 355.199C396.499 355.601 396.689 355.93 396.944 356.185C397.207 356.432 397.59 356.556 398.092 356.556C398.448 356.556 398.75 356.49 398.997 356.359C399.252 356.227 399.449 356.042 399.588 355.802C399.728 355.555 399.797 355.261 399.797 354.921C399.797 354.557 399.732 354.256 399.6 354.016C399.476 353.769 399.295 353.583 399.055 353.459C398.815 353.336 398.521 353.274 398.173 353.274C397.926 353.274 397.694 353.301 397.477 353.355C397.269 353.401 397.079 353.479 396.909 353.587C396.739 353.695 396.592 353.838 396.468 354.016L395.656 353.865L396.109 349.655H400.412V350.525H396.898L396.596 352.937L396.573 353.042H396.596C396.782 352.848 397.017 352.694 397.304 352.578C397.597 352.462 397.945 352.404 398.347 352.404C398.835 352.404 399.256 352.508 399.612 352.717C399.975 352.918 400.257 353.204 400.458 353.575C400.659 353.946 400.76 354.379 400.76 354.874C400.76 355.269 400.694 355.624 400.563 355.941C400.431 356.258 400.246 356.529 400.006 356.753C399.766 356.97 399.48 357.136 399.148 357.252C398.823 357.368 398.463 357.426 398.069 357.426Z" fill="#988282"/>
<path d="M442.036 357.31V355.303H438.301V354.619L441.793 349.655H442.964V354.503H444.321V355.303H442.964V357.31H442.036ZM439.287 354.503H442.036V351.638C442.036 351.437 442.04 351.232 442.048 351.023C442.063 350.815 442.075 350.61 442.083 350.409H442.059C441.967 350.602 441.847 350.819 441.7 351.058C441.553 351.298 441.418 351.507 441.294 351.685L439.287 354.503ZM448.489 357.426C447.623 357.426 446.931 357.09 446.413 356.417C445.895 355.744 445.636 354.766 445.636 353.482C445.636 352.199 445.895 351.221 446.413 350.548C446.931 349.875 447.623 349.539 448.489 349.539C449.363 349.539 450.055 349.875 450.565 350.548C451.083 351.221 451.342 352.199 451.342 353.482C451.342 354.766 451.083 355.744 450.565 356.417C450.055 357.09 449.363 357.426 448.489 357.426ZM448.489 356.591C448.899 356.591 449.243 356.475 449.521 356.243C449.807 356.003 450.02 355.651 450.159 355.187C450.306 354.724 450.38 354.155 450.38 353.482C450.38 352.81 450.306 352.241 450.159 351.777C450.02 351.313 449.807 350.965 449.521 350.733C449.243 350.494 448.899 350.374 448.489 350.374C448.079 350.374 447.731 350.494 447.445 350.733C447.167 350.965 446.954 351.313 446.807 351.777C446.668 352.241 446.598 352.81 446.598 353.482C446.598 354.155 446.668 354.724 446.807 355.187C446.954 355.651 447.167 356.003 447.445 356.243C447.731 356.475 448.079 356.591 448.489 356.591Z" fill="#988282"/>
<path d="M493.135 357.31V355.303H489.4V354.619L492.892 349.655H494.063V354.503H495.42V355.303H494.063V357.31H493.135ZM490.386 354.503H493.135V351.638C493.135 351.437 493.139 351.232 493.147 351.023C493.162 350.815 493.174 350.61 493.182 350.409H493.158C493.066 350.602 492.946 350.819 492.799 351.058C492.652 351.298 492.517 351.507 492.393 351.685L490.386 354.503ZM499.31 357.426C498.629 357.426 498.08 357.271 497.663 356.962C497.253 356.653 496.936 356.224 496.711 355.675L497.616 355.199C497.74 355.601 497.929 355.93 498.184 356.185C498.447 356.432 498.83 356.556 499.333 356.556C499.688 356.556 499.99 356.49 500.237 356.359C500.493 356.227 500.69 356.042 500.829 355.802C500.968 355.555 501.038 355.261 501.038 354.921C501.038 354.557 500.972 354.256 500.841 354.016C500.717 353.769 500.535 353.583 500.295 353.459C500.056 353.336 499.762 353.274 499.414 353.274C499.167 353.274 498.935 353.301 498.718 353.355C498.509 353.401 498.32 353.479 498.15 353.587C497.98 353.695 497.833 353.838 497.709 354.016L496.897 353.865L497.349 349.655H501.653V350.525H498.138L497.837 352.937L497.813 353.042H497.837C498.022 352.848 498.258 352.694 498.544 352.578C498.838 352.462 499.186 352.404 499.588 352.404C500.075 352.404 500.497 352.508 500.852 352.717C501.216 352.918 501.498 353.204 501.699 353.575C501.9 353.946 502.001 354.379 502.001 354.874C502.001 355.269 501.935 355.624 501.803 355.941C501.672 356.258 501.486 356.529 501.247 356.753C501.007 356.97 500.721 357.136 500.388 357.252C500.064 357.368 499.704 357.426 499.31 357.426Z" fill="#988282"/>
<path d="M543.523 357.426C542.842 357.426 542.293 357.271 541.876 356.962C541.466 356.653 541.149 356.224 540.925 355.675L541.829 355.199C541.953 355.601 542.143 355.93 542.398 356.185C542.661 356.432 543.043 356.556 543.546 356.556C543.902 356.556 544.203 356.49 544.451 356.359C544.706 356.227 544.903 356.042 545.042 355.802C545.181 355.555 545.251 355.261 545.251 354.921C545.251 354.557 545.185 354.256 545.054 354.016C544.93 353.769 544.748 353.583 544.509 353.459C544.269 353.336 543.975 353.274 543.627 353.274C543.38 353.274 543.148 353.301 542.931 353.355C542.722 353.401 542.533 353.479 542.363 353.587C542.193 353.695 542.046 353.838 541.922 354.016L541.11 353.865L541.563 349.655H545.866V350.525H542.351L542.05 352.937L542.027 353.042H542.05C542.235 352.848 542.471 352.694 542.757 352.578C543.051 352.462 543.399 352.404 543.801 352.404C544.288 352.404 544.71 352.508 545.065 352.717C545.429 352.918 545.711 353.204 545.912 353.575C546.113 353.946 546.214 354.379 546.214 354.874C546.214 355.269 546.148 355.624 546.017 355.941C545.885 356.258 545.7 356.529 545.46 356.753C545.22 356.97 544.934 357.136 544.602 357.252C544.277 357.368 543.917 357.426 543.523 357.426ZM550.552 357.426C549.686 357.426 548.994 357.09 548.476 356.417C547.958 355.744 547.699 354.766 547.699 353.482C547.699 352.199 547.958 351.221 548.476 350.548C548.994 349.875 549.686 349.539 550.552 349.539C551.426 349.539 552.118 349.875 552.628 350.548C553.146 351.221 553.405 352.199 553.405 353.482C553.405 354.766 553.146 355.744 552.628 356.417C552.118 357.09 551.426 357.426 550.552 357.426ZM550.552 356.591C550.962 356.591 551.306 356.475 551.584 356.243C551.871 356.003 552.083 355.651 552.222 355.187C552.369 354.724 552.443 354.155 552.443 353.482C552.443 352.81 552.369 352.241 552.222 351.777C552.083 351.313 551.871 350.965 551.584 350.733C551.306 350.494 550.962 350.374 550.552 350.374C550.142 350.374 549.794 350.494 549.508 350.733C549.23 350.965 549.017 351.313 548.87 351.777C548.731 352.241 548.661 352.81 548.661 353.482C548.661 354.155 548.731 354.724 548.87 355.187C549.017 355.651 549.23 356.003 549.508 356.243C549.794 356.475 550.142 356.591 550.552 356.591Z" fill="#988282"/>
</svg>
