<svg width="54" height="50" viewBox="0 0 54 50" fill="none" xmlns="http://www.w3.org/2000/svg">
<g clip-path="url(#clip0_20_181)">
<rect width="54.1737" height="49.7368" rx="24.8684" fill="#FF007F"/>
<path d="M35.4745 21.5387C35.4745 21.7291 35.4745 21.8814 35.4745 22.0717C35.4745 27.3643 31.4765 33.4183 24.1279 33.4183C21.8434 33.4183 19.7492 32.771 17.9977 31.6287C18.3024 31.6668 18.607 31.7049 18.9496 31.7049C20.8153 31.7049 22.5288 31.0576 23.8995 29.9915C22.148 29.9534 20.663 28.8111 20.1681 27.212C20.4346 27.25 20.663 27.2881 20.9296 27.2881C21.2723 27.2881 21.653 27.212 21.9576 27.1358C20.13 26.7551 18.7593 25.1559 18.7593 23.214V23.1759C19.2923 23.4805 19.9396 23.6328 20.5869 23.6709C19.4827 22.9475 18.7973 21.7291 18.7973 20.3583C18.7973 19.5968 18.9877 18.9115 19.3304 18.3403C21.3103 20.7391 24.2802 22.3383 27.5928 22.5287C27.5167 22.224 27.4786 21.9194 27.4786 21.6148C27.4786 19.4064 29.2681 17.6169 31.4765 17.6169C32.6188 17.6169 33.6468 18.0738 34.4084 18.8734C35.2841 18.683 36.1598 18.3403 36.9214 17.8834C36.6167 18.8353 36.0075 19.5968 35.1699 20.0918C35.9695 20.0157 36.769 19.7872 37.4544 19.4826C36.9214 20.2822 36.236 20.9676 35.4745 21.5387Z" fill="white"/>
</g>
<defs>
<clipPath id="clip0_20_181">
<rect width="54" height="50" fill="white"/>
</clipPath>
</defs>
</svg>
